<svg width="174" height="124" viewBox="0 0 174 124" fill="none" xmlns="http://www.w3.org/2000/svg">
<path d="M173.042 115.231C173.022 115.282 172.984 115.323 172.935 115.346C172.885 115.368 172.829 115.37 172.778 115.351L10.0861 54.738C10.0353 54.7189 9.99414 54.6805 9.97163 54.6311C9.94913 54.5817 9.94711 54.5254 9.96602 54.4745C9.98492 54.4237 10.0232 54.3824 10.0725 54.3597C10.1218 54.3371 10.178 54.335 10.2288 54.3538L172.921 114.967C172.972 114.986 173.013 115.025 173.036 115.074C173.058 115.124 173.06 115.18 173.042 115.231Z" fill="#F2F2F2"/>
<path d="M86.3765 0H47.6094C44.5684 0.00344525 41.6528 1.21452 39.5025 3.36754C37.3521 5.52056 36.1425 8.43969 36.1391 11.4845V14.9929C36.0595 14.971 35.976 14.9679 35.895 14.9839C35.814 14.9998 35.7379 15.0344 35.6725 15.0849C35.6072 15.1354 35.5545 15.2004 35.5185 15.2747C35.4826 15.3491 35.4644 15.4308 35.4654 15.5135V18.2115C35.4644 18.2941 35.4826 18.3758 35.5185 18.4502C35.5545 18.5246 35.6072 18.5896 35.6725 18.64C35.7379 18.6905 35.814 18.7251 35.895 18.7411C35.976 18.757 36.0595 18.7539 36.1391 18.732V22.8171C36.0595 22.7952 35.976 22.7921 35.895 22.808C35.814 22.824 35.7379 22.8586 35.6725 22.909C35.6072 22.9595 35.5545 23.0245 35.5185 23.0989C35.4826 23.1733 35.4644 23.255 35.4654 23.3376V30.0826C35.4644 30.1652 35.4826 30.247 35.5185 30.3214C35.5545 30.3957 35.6072 30.4607 35.6725 30.5112C35.7379 30.5617 35.814 30.5963 35.895 30.6122C35.976 30.6282 36.0595 30.6251 36.1391 30.6031V33.0695C36.0595 33.0476 35.976 33.0444 35.895 33.0604C35.814 33.0764 35.7379 33.1109 35.6725 33.1614C35.6072 33.2119 35.5545 33.2769 35.5185 33.3513C35.4826 33.4257 35.4644 33.5074 35.4654 33.59V40.335C35.4644 40.4176 35.4826 40.4994 35.5185 40.5737C35.5545 40.6481 35.6072 40.7131 35.6725 40.7636C35.7379 40.8141 35.814 40.8487 35.895 40.8646C35.976 40.8806 36.0595 40.8774 36.1391 40.8555V112.084C36.1425 115.128 37.3521 118.047 39.5025 120.2C41.6528 122.354 44.5684 123.565 47.6094 123.568H86.3765C89.4176 123.565 92.3331 122.354 94.4835 120.2C96.6339 118.047 97.8434 115.128 97.8469 112.084V11.4845C97.8434 8.43969 96.6339 5.52056 94.4835 3.36754C92.3331 1.21452 89.4176 0.00344525 86.3765 0ZM95.4217 112.084C95.419 114.485 94.4651 116.786 92.7694 118.484C91.0737 120.182 88.7746 121.137 86.3765 121.14H47.6094C45.2114 121.137 42.9123 120.182 41.2166 118.484C39.5209 116.786 38.567 114.485 38.5643 112.084V11.4845C38.567 9.08346 39.5209 6.78154 41.2166 5.08374C42.9123 3.38594 45.2114 2.43092 47.6094 2.42819H86.3765C88.7746 2.43091 91.0737 3.38593 92.7694 5.08373C94.4651 6.78153 95.419 9.08346 95.4217 11.4845V112.084Z" fill="#3F3D56"/>
<path d="M86.3766 122.489H47.6095C44.8542 122.486 42.2126 121.388 40.2644 119.438C38.3161 117.487 37.2202 114.842 37.217 112.083V11.4844C37.2202 8.72572 38.3161 6.0809 40.2644 4.13021C42.2126 2.17951 44.8542 1.08223 47.6095 1.0791H86.3766C89.1319 1.08223 91.7734 2.17951 93.7217 4.1302C95.67 6.0809 96.7659 8.72572 96.7691 11.4844V112.083C96.7659 114.842 95.67 117.487 93.7217 119.438C91.7734 121.388 89.1319 122.486 86.3766 122.489Z" fill="#E6E6E6"/>
<path d="M87.3346 120.87H46.6515C44.7932 120.868 43.0115 120.128 41.6975 118.812C40.3834 117.497 39.6443 115.713 39.6422 113.852V9.71594C39.6443 7.85532 40.3834 6.0715 41.6975 4.75584C43.0115 3.44018 44.7931 2.70012 46.6515 2.698H51.957C52.2641 2.69836 52.5586 2.82068 52.7758 3.03814C52.993 3.25559 53.1151 3.55043 53.1155 3.85796C53.1165 4.76645 53.4774 5.63743 54.119 6.27983C54.7606 6.92223 55.6305 7.28358 56.5379 7.28459H76.9092C77.8165 7.28358 78.6865 6.92223 79.3281 6.27983C79.9697 5.63743 80.3306 4.76644 80.3316 3.85795C80.332 3.55042 80.4541 3.25559 80.6713 3.03813C80.8885 2.82068 81.1829 2.69835 81.4901 2.698H87.3345C89.1929 2.70011 90.9745 3.44017 92.2885 4.75583C93.6026 6.07149 94.3418 7.85531 94.3439 9.71594V113.852C94.3418 115.713 93.6026 117.497 92.2886 118.812C90.9745 120.128 89.1929 120.868 87.3346 120.87Z" fill="white"/>
<path d="M68.7446 5.05845H63.8942C63.7513 5.05845 63.6142 5.0016 63.5131 4.9004C63.4121 4.79921 63.3553 4.66196 63.3553 4.51885C63.3553 4.37574 63.4121 4.23849 63.5131 4.13729C63.6142 4.0361 63.7513 3.97925 63.8942 3.97925H68.7446C68.8875 3.97925 69.0246 4.0361 69.1257 4.13729C69.2268 4.23849 69.2835 4.37574 69.2835 4.51885C69.2835 4.66196 69.2268 4.79921 69.1257 4.9004C69.0246 5.0016 68.8875 5.05845 68.7446 5.05845Z" fill="white"/>
<path d="M72.1129 4.92388C72.2617 4.92388 72.3824 4.80308 72.3824 4.65408C72.3824 4.50507 72.2617 4.38428 72.1129 4.38428C71.9641 4.38428 71.8435 4.50507 71.8435 4.65408C71.8435 4.80308 71.9641 4.92388 72.1129 4.92388Z" fill="white"/>
<path d="M95.6545 23.7751H38.278V24.39H95.6545V23.7751Z" fill="#E6E6E6"/>
<path d="M95.6545 36.0728H38.278V36.6876H95.6545V36.0728Z" fill="#E6E6E6"/>
<path d="M95.6545 61.4875H38.278V62.1025H95.6545V61.4875Z" fill="#E6E6E6"/>
<path d="M95.6545 86.9026H38.278V87.5175H95.6545V86.9026Z" fill="#E6E6E6"/>
<path d="M95.6545 106.783H38.278V107.398H95.6545V106.783Z" fill="#E6E6E6"/>
<path d="M79.9461 24.0825H79.332V61.7949H79.9461V24.0825Z" fill="#E6E6E6"/>
<path d="M51.2229 61.7842H50.6087V107.091H51.2229V61.7842Z" fill="#E6E6E6"/>
<path d="M94.3439 74.2119H50.9158V74.8268H94.3439V74.2119Z" fill="#E6E6E6"/>
<path d="M80.0122 107.091H79.3981V120.87H80.0122V107.091Z" fill="#E6E6E6"/>
<path d="M79.5367 49.032H39.5398V49.6469H79.5367V49.032Z" fill="#E6E6E6"/>
<path d="M47.8927 2.30949L47.3262 2.54688L56.3772 24.2013L56.9437 23.964L47.8927 2.30949Z" fill="#E6E6E6"/>
<path d="M75.7682 7.28442H75.1541V24.0825H75.7682V7.28442Z" fill="#E6E6E6"/>
<path d="M91.6039 33.4082C91.6039 38.9176 83.0964 51.7553 80.6102 55.3894C80.5352 55.4992 80.4346 55.5891 80.317 55.6512C80.1995 55.7133 80.0686 55.7458 79.9356 55.7458C79.8027 55.7458 79.6718 55.7133 79.5543 55.6512C79.4367 55.5891 79.3361 55.4992 79.2611 55.3894C76.7749 51.7553 68.2674 38.9176 68.2674 33.4082C68.2674 30.3098 69.4967 27.3383 71.685 25.1474C73.8732 22.9564 76.841 21.7256 79.9356 21.7256C83.0303 21.7256 85.9981 22.9564 88.1863 25.1474C90.3745 27.3383 91.6039 30.3098 91.6039 33.4082Z" fill="#083E3A"/>
<path d="M79.9356 38.5321C83.2143 38.5321 85.8721 35.871 85.8721 32.5883C85.8721 29.3057 83.2143 26.6445 79.9356 26.6445C76.657 26.6445 73.9992 29.3057 73.9992 32.5883C73.9992 35.871 76.657 38.5321 79.9356 38.5321Z" fill="white"/>
<path d="M79.5467 61.9719L57.0647 106.947L57.6139 107.222L80.0959 62.2471L79.5467 61.9719Z" fill="#E6E6E6"/>
<path d="M111.925 71.8645C112.19 72.0072 112.483 72.0899 112.783 72.1069C113.084 72.1239 113.384 72.0747 113.664 71.9628C113.943 71.851 114.195 71.6791 114.401 71.4594C114.607 71.2396 114.762 70.9774 114.856 70.691L122.17 70.5645L120.022 67.4238L113.406 68.0255C112.915 67.8998 112.395 67.9587 111.945 68.191C111.495 68.4234 111.145 68.8131 110.962 69.2863C110.78 69.7595 110.777 70.2833 110.954 70.7585C111.132 71.2337 111.477 71.6272 111.925 71.8645H111.925Z" fill="#FFB8B8"/>
<path d="M116.315 71.7733C116.202 71.7733 116.09 71.7503 115.986 71.7058C115.881 71.6612 115.787 71.5959 115.709 71.5139C115.631 71.432 115.57 71.3349 115.53 71.2287C115.49 71.1225 115.472 71.0092 115.477 70.8959L115.624 67.5379C115.633 67.3379 115.712 67.1474 115.848 67.0011C115.984 66.8547 116.169 66.7621 116.367 66.74L124.84 65.7671L124.556 71.3628L116.357 71.7721C116.343 71.7729 116.329 71.7733 116.315 71.7733Z" fill="#083E3A"/>
<path d="M126.635 117.801L124.249 118.581L120.109 109.739L123.629 108.588L126.635 117.801Z" fill="#FFB8B8"/>
<path d="M127.999 119.918L120.306 122.433L120.274 122.336C120.146 121.942 120.096 121.527 120.128 121.114C120.16 120.701 120.273 120.298 120.46 119.929C120.647 119.56 120.905 119.231 121.219 118.962C121.533 118.692 121.897 118.487 122.291 118.359L122.291 118.359L126.989 116.822L127.999 119.918Z" fill="#2F2E41"/>
<path d="M133.661 121.499L131.152 121.499L129.958 111.807L133.662 111.807L133.661 121.499Z" fill="#FFB8B8"/>
<path d="M134.301 123.934L126.209 123.934V123.832C126.209 123.417 126.291 123.007 126.449 122.625C126.607 122.242 126.839 121.894 127.132 121.602C127.424 121.309 127.772 121.076 128.154 120.918C128.536 120.76 128.945 120.678 129.359 120.678H129.359L134.302 120.678L134.301 123.934Z" fill="#2F2E41"/>
<path d="M129.85 119.14C129.645 119.139 129.447 119.064 129.293 118.928C129.14 118.791 129.041 118.603 129.017 118.399L125.781 91.315L121.045 98.9277L126.602 113.147C126.678 113.344 126.677 113.561 126.601 113.758C126.525 113.954 126.378 114.115 126.19 114.208L121.475 116.518C121.368 116.571 121.25 116.6 121.13 116.603C121.01 116.607 120.891 116.584 120.781 116.538C120.671 116.491 120.571 116.422 120.49 116.334C120.409 116.246 120.347 116.141 120.31 116.027L115.085 100.223C114.691 99.0339 114.64 97.7577 114.937 96.5404L118.315 82.6603L118.354 82.6386L125.969 78.4624L126.013 78.4784L134.981 81.7556L134.042 99.5495L134.724 118.018C134.733 118.237 134.656 118.452 134.509 118.615C134.361 118.777 134.156 118.876 133.937 118.888L129.902 119.138C129.885 119.139 129.867 119.14 129.85 119.14Z" fill="#2F2E41"/>
<path d="M124.91 87.9346C123.57 87.9346 122.441 87.5525 121.735 86.5812L121.712 86.5499L122.169 81.7486L118.105 84.0076C118.02 84.0544 117.924 84.0742 117.828 84.0643C117.732 84.0544 117.642 84.0153 117.569 83.9522C117.496 83.8892 117.444 83.8052 117.42 83.7117C117.396 83.6182 117.402 83.5196 117.436 83.4293L122.504 69.9515L125.851 58.9724C126.017 58.0936 126.446 57.2861 127.081 56.6567C127.715 56.0273 128.526 55.6057 129.405 55.4478C132.386 54.8995 134.162 55.9068 136.213 58.142C136.708 58.6859 137.074 59.336 137.28 60.0428C137.487 60.7495 137.53 61.4942 137.405 62.22L135.465 73.3207L136.035 83.2736C136.079 83.4452 136.067 83.6261 136.002 83.7907C135.936 83.9552 135.821 84.0948 135.671 84.1895C134.086 85.1999 129.225 87.9342 124.91 87.9346Z" fill="#083E3A"/>
<path d="M131.693 53.7855C134.47 53.7855 136.721 51.5317 136.721 48.7515C136.721 45.9713 134.47 43.7175 131.693 43.7175C128.916 43.7175 126.665 45.9713 126.665 48.7515C126.665 51.5317 128.916 53.7855 131.693 53.7855Z" fill="#FFB8B8"/>
<path d="M133.003 84.6349C133.276 84.5094 133.519 84.3252 133.714 84.0956C133.909 83.8659 134.051 83.5963 134.13 83.3057C134.21 83.0151 134.224 82.7106 134.174 82.4136C134.123 82.1166 134.008 81.8344 133.836 81.5868L138.148 75.6703L134.351 75.49L130.838 81.136C130.442 81.4521 130.175 81.9027 130.089 82.4025C130.002 82.9023 130.102 83.4166 130.368 83.8479C130.635 84.2792 131.051 84.5975 131.536 84.7426C132.022 84.8876 132.543 84.8493 133.003 84.6349Z" fill="#FFB8B8"/>
<path d="M135.338 81.2965C135.127 81.3264 134.914 81.2755 134.739 81.1538L131.885 79.1607C131.713 79.0418 131.592 78.8629 131.545 78.6592C131.499 78.4555 131.53 78.2418 131.633 78.06L136.715 69.0067L131.604 62.8465C131.335 62.523 131.137 62.1471 131.022 61.7427C130.906 61.3383 130.876 60.9143 130.933 60.4977C130.991 60.081 131.134 59.6809 131.354 59.3227C131.574 58.9644 131.866 58.656 132.212 58.4171C132.557 58.1781 132.949 58.0138 133.362 57.9346C133.774 57.8554 134.199 57.863 134.608 57.9571C135.017 58.0511 135.403 58.2294 135.74 58.4807C136.076 58.732 136.357 59.0507 136.564 59.4166L142.208 69.3902C142.248 69.4612 142.269 69.5413 142.269 69.6228C142.269 69.7044 142.248 69.7845 142.208 69.8554L135.949 80.8798C135.891 80.9813 135.813 81.0697 135.719 81.1394C135.625 81.209 135.518 81.2583 135.404 81.2842C135.382 81.2893 135.36 81.2933 135.338 81.2965Z" fill="#083E3A"/>
<path d="M129.684 48.1086C129.186 47.7367 128.497 47.7947 127.908 47.5998C127.556 47.4837 127.242 47.2773 126.996 47.0012C126.75 46.7251 126.58 46.389 126.505 46.0266C126.429 45.6643 126.45 45.2885 126.565 44.9368C126.681 44.5851 126.886 44.2699 127.161 44.0229C127.798 43.4515 128.704 43.3219 129.553 43.2174C130.716 43.0742 131.89 42.9307 133.055 43.0446C134.221 43.1585 135.395 43.5528 136.247 44.3575C137.187 45.2447 137.649 46.5656 137.652 47.8587C137.62 49.1579 137.263 50.4284 136.616 51.5548C136.416 51.9829 136.114 52.3554 135.738 52.6399C135.345 52.8991 134.793 52.9669 134.415 52.687C134.089 52.4451 133.969 52.0213 133.822 51.6424C133.674 51.2636 133.422 50.86 133.021 50.8015C132.503 50.7263 132.108 51.2532 131.614 51.4256C130.923 51.6668 130.156 51.1334 129.874 50.4575C129.593 49.7815 129.667 49.0168 129.746 48.2886" fill="#2F2E41"/>
<path d="M174 123.795C174 123.849 173.978 123.901 173.94 123.94C173.902 123.978 173.85 124 173.795 124H0.204706C0.150414 124 0.0983466 123.978 0.0599568 123.94C0.021567 123.902 0 123.849 0 123.795C0 123.741 0.021567 123.689 0.0599568 123.65C0.0983466 123.612 0.150414 123.59 0.204706 123.59H173.795C173.85 123.59 173.902 123.612 173.94 123.65C173.978 123.689 174 123.741 174 123.795Z" fill="#CCCCCC"/>
<path d="M79.9356 64.357C81.4054 64.357 82.5968 63.1641 82.5968 61.6925C82.5968 60.221 81.4054 59.0281 79.9356 59.0281C78.4659 59.0281 77.2745 60.221 77.2745 61.6925C77.2745 63.1641 78.4659 64.357 79.9356 64.357Z" fill="#083E3A"/>
<path d="M117.401 32.5599C116.289 34.043 111.41 35.7782 110.007 36.2537C109.965 36.2681 109.92 36.2719 109.875 36.2649C109.831 36.2578 109.789 36.2401 109.754 36.2132C109.718 36.1863 109.689 36.1511 109.67 36.1106C109.651 36.0701 109.642 36.0256 109.644 35.9809C109.708 34.4998 110.008 29.3236 111.119 27.8406C111.744 27.0065 112.674 26.4552 113.705 26.308C114.736 26.1607 115.784 26.4296 116.617 27.0554C117.45 27.6812 118 28.6128 118.147 29.6451C118.294 30.6773 118.026 31.7259 117.401 32.5599Z" fill="#F2F2F2"/>
<path d="M114.425 31.9801C115.529 31.9801 116.423 31.0846 116.423 29.9798C116.423 28.8751 115.529 27.9795 114.425 27.9795C113.322 27.9795 112.427 28.8751 112.427 29.9798C112.427 31.0846 113.322 31.9801 114.425 31.9801Z" fill="white"/>
<path d="M108.554 38.7106C109.049 38.7106 109.45 38.3092 109.45 37.8139C109.45 37.3187 109.049 36.9172 108.554 36.9172C108.059 36.9172 107.658 37.3187 107.658 37.8139C107.658 38.3092 108.059 38.7106 108.554 38.7106Z" fill="#F2F2F2"/>
<path d="M19.995 73.2401C21.6305 75.7418 21.5782 84.1029 21.528 86.4929C21.5266 86.5651 21.5075 86.6359 21.4726 86.6991C21.4376 86.7623 21.3878 86.816 21.3275 86.8555C21.2671 86.8951 21.1981 86.9193 21.1262 86.9261C21.0544 86.9328 20.982 86.922 20.9154 86.8944C18.7077 85.9841 11.0337 82.6863 9.39823 80.1846C8.94217 79.4879 8.62769 78.7081 8.47275 77.8897C8.3178 77.0714 8.32544 76.2304 8.49522 75.415C8.665 74.5996 8.99359 73.8256 9.46222 73.1374C9.93086 72.4492 10.5303 71.8601 11.2264 71.404C11.9225 70.9478 12.7015 70.6334 13.519 70.4788C14.3365 70.3242 15.1764 70.3324 15.9907 70.5029C16.805 70.6734 17.5778 71.0029 18.2649 71.4726C18.9519 71.9422 19.5399 72.5428 19.995 73.2401Z" fill="#F2F2F2"/>
<path d="M14.4533 79.566C16.2326 79.566 17.6751 78.1218 17.6751 76.3403C17.6751 74.5587 16.2326 73.1145 14.4533 73.1145C12.674 73.1145 11.2315 74.5587 11.2315 76.3403C11.2315 78.1218 12.674 79.566 14.4533 79.566Z" fill="white"/>
<path d="M23.0928 91.0019C23.8905 91.0019 24.5371 90.3545 24.5371 89.5559C24.5371 88.7573 23.8905 88.1099 23.0928 88.1099C22.2952 88.1099 21.6486 88.7573 21.6486 89.5559C21.6486 90.3545 22.2952 91.0019 23.0928 91.0019Z" fill="#F2F2F2"/>
</svg>
