<svg xmlns="http://www.w3.org/2000/svg" viewBox="0 0 329.31 154.55"><defs><style>.cls-1{opacity:0.5;}.cls-2,.cls-6{fill:#1d6874;}.cls-2,.cls-5,.cls-6{stroke:#1d6874;stroke-miterlimit:10;}.cls-2,.cls-5{stroke-width:0.75px;}.cls-3{fill:#9ac43e;}.cls-4,.cls-5{fill:#1b6774;}</style></defs><g id="Logo"><path class="cls-2" d="M301.86,193.57l.12-.07,3.92,2.5-.21.43a.66.66,0,0,1-.2,0,7.1,7.1,0,0,0-3.06-.54c-1.59.08-3.33,2.07-2.78,3.65a2.29,2.29,0,0,0,3.08,1.44,29.93,29.93,0,0,0,3.32-1.62,8.47,8.47,0,0,1,4.09-1.27,4,4,0,0,1,3.87,3.19,5.77,5.77,0,0,1-1.47,5c-.58.69-1.26,1.28-1.9,1.91a.75.75,0,0,0-.26.85c.05.16-.05.36-.09.61l-4.64-3,.33-.47v.16c.88.13,1.77.33,2.66.42a3.92,3.92,0,0,0,3-.9c2.69-2.37.57-5.45-1.89-4.69-1.11.35-2.13,1-3.22,1.44a21.76,21.76,0,0,1-3.46,1.27,3.78,3.78,0,0,1-4.46-2.75,5.16,5.16,0,0,1,2-5.58C301.26,195,301.87,194.47,301.86,193.57Z" transform="translate(-145 -193.06)"/><path class="cls-3" d="M329.24,346h-25c0-1.12,0-2.22,0-3.32-.29-7.22-1.38-14.3-4.37-21a36.42,36.42,0,0,0-22.37-20.29A47.35,47.35,0,0,0,265.35,299c-3.28-.22-6.57-.24-9.85-.35-.13,0-.26,0-.47,0l-.22-7c.31,0,.56-.06.8-.05,3.83.15,7.68.15,11.5.48A55.28,55.28,0,0,1,289,298.19a44.13,44.13,0,0,1,19.76,21.13c.1.23.22.45.32.68l.16-.06c-.19-1.07-.37-2.15-.58-3.23a52.57,52.57,0,0,0-3.92-12.61,50,50,0,0,0-6.66-10.24,78.19,78.19,0,0,0-20.79-17.41l-.6-.36,4.79-6.09c1.61,1,3.19,1.95,4.74,3a89.63,89.63,0,0,1,15.53,12.61,60.25,60.25,0,0,1,13.07,19,53,53,0,0,1,1.84,5.68c0,.15.09.29.16.49.52-1.61,1-3.17,1.52-4.7a49.55,49.55,0,0,1,7.92-14,87.88,87.88,0,0,1,23.35-20.46c.76-.47,1.54-.92,2.31-1.38l.31-.16,4.75,6c-1.19.74-2.35,1.43-3.48,2.16a78.9,78.9,0,0,0-14,11.24,55.87,55.87,0,0,0-10.13,13.71,47.84,47.84,0,0,0-3.86,11.07c-.4,1.73-.69,3.48-1,5.22,0,.21,0,.43-.06.8.63-1.3,1.17-2.47,1.75-3.61a43,43,0,0,1,10-12.58,48,48,0,0,1,22.72-10.9,76.57,76.57,0,0,1,13.75-1.52c1.83,0,3.67-.06,5.5-.08.22,0,.45,0,.71.06-.09,2.34-.18,4.64-.27,7h-.74a71.61,71.61,0,0,0-18.52,1.83,37.68,37.68,0,0,0-19.15,11.24A38.07,38.07,0,0,0,332,326.1a52.06,52.06,0,0,0-2.3,11.52c-.23,2.68-.32,5.37-.46,8.05C329.26,345.77,329.25,345.86,329.24,346Z" transform="translate(-145 -193.06)"/><path class="cls-4" d="M353,323.63V310h6v35h-6v-1.77a4.35,4.35,0,0,1-1.63,1.58,11.09,11.09,0,0,1-15.29-3.89,14.86,14.86,0,0,1-2-8.62,12.9,12.9,0,0,1,4.93-9.92,10.62,10.62,0,0,1,13.28.22A3.77,3.77,0,0,1,353,323.63Zm1,9.7a25.86,25.86,0,0,0-.66-3.22,6.44,6.44,0,0,0-5.57-4.69A6.32,6.32,0,0,0,341,329a9,9,0,0,0,.21,9c2.53,4.4,8.25,3.9,10.65,1.18A9.41,9.41,0,0,0,354,333.33Z" transform="translate(-145 -193.06)"/><path class="cls-4" d="M297,346h-7v-2.76c.49.36.15.64-.2.91a10.13,10.13,0,0,1-6.54,2.32,11.15,11.15,0,0,1-10.52-7,15.15,15.15,0,0,1-1.16-8,12.75,12.75,0,0,1,4.36-8.64,10.61,10.61,0,0,1,7.92-2.61,10.5,10.5,0,0,1,6.52,3l.62.49V321h6Zm-12-4.73c2.3.05,4.51-1.6,5.57-4.23a9.55,9.55,0,0,0,0-7.24,6.42,6.42,0,0,0-5.87-4.38,6.26,6.26,0,0,0-6.24,3.43,9,9,0,0,0-.05,9C279.64,340.07,281.61,341.26,285,341.27Z" transform="translate(-145 -193.06)"/><path class="cls-4" d="M227.1,335a6.31,6.31,0,0,0,5,6.45,10.14,10.14,0,0,0,3.11-.05c1.68-.26,2.73-1.49,3.7-2.77.44-.57.84-1.17,1.29-1.81l4.92,2.75c-.67.94-1.27,1.87-2,2.73-2.75,3.41-6.38,4.69-10.67,4.47a12,12,0,0,1-6.51-2.13,11.68,11.68,0,0,1-4.68-7.58,16.23,16.23,0,0,1,.65-9.1,10.8,10.8,0,0,1,9.19-7.31,12,12,0,0,1,9.29,2.22,10.91,10.91,0,0,1,4.06,7c.28,1.66.33,3.36.49,5.13Zm11.68-5c-.55-2.64-2.49-4.59-6-4.49a5.74,5.74,0,0,0-5.31,4.49Z" transform="translate(-145 -193.06)"/><path class="cls-4" d="M156.75,323.05a20.07,20.07,0,0,1,2.85.16A10.31,10.31,0,0,1,168,331a11.55,11.55,0,0,1-8.91,14.43,11.88,11.88,0,0,1-13.8-8.8,11,11,0,0,1,1.41-8.21c1.26-2.12,2.74-4.12,4.19-6.13,3-4.19,6.15-8.35,9.23-12.53l.38-.47,4.13,3.1Zm6.14,11.32a6.2,6.2,0,1,0-6.14,6.08A6.17,6.17,0,0,0,162.89,334.37Z" transform="translate(-145 -193.06)"/><path class="cls-4" d="M447.76,333.24c-.16-6.89,5.85-13.05,13.4-13a13.19,13.19,0,0,1,13.14,13.25,13.27,13.27,0,0,1-26.54-.27Zm12.69,8.13c3.44,0,5.69-1.14,7-3.77a9.37,9.37,0,0,0,.73-6.06,7.22,7.22,0,0,0-2.63-4.53,6.84,6.84,0,0,0-4.06-1.45,6.91,6.91,0,0,0-6.44,2.94A9,9,0,0,0,453.8,335C454.22,338.65,457,341.48,460.45,341.37Z" transform="translate(-145 -193.06)"/><path class="cls-4" d="M387,333.27c.24,7-5.51,13.2-13.45,13.15a13.14,13.14,0,1,1,.39-26.27A12.91,12.91,0,0,1,387,333.27Zm-5.84,0c.11-4.44-2.62-7.81-6.95-7.95a7.11,7.11,0,0,0-5.66,2.1,7.27,7.27,0,0,0-1.93,3.94,10.29,10.29,0,0,0,.46,5.47c1.24,3.25,4.34,4.75,7.87,4.32a6.62,6.62,0,0,0,5.45-3.93A8.53,8.53,0,0,0,381.13,333.31Z" transform="translate(-145 -193.06)"/><path class="cls-4" d="M175,344.83l-4.25-2.68,16-26.15H171v-5h24.59Z" transform="translate(-145 -193.06)"/><path class="cls-4" d="M209,345V326h-2v-6h2.43c0,.26,0-.17,0-.6a29.22,29.22,0,0,1,.41-4.08c.62-2.82,2.58-4.37,5.32-5a9.57,9.57,0,0,1,5.88.49.75.75,0,0,1,.4.49c0,1.68,0,3.36,0,5.1-.58-.23-1.11-.47-1.66-.65a4.15,4.15,0,0,0-2.24-.21,2.38,2.38,0,0,0-2.13,2c-.18,1-.2,2.08-.3,3.49H221v5h-6v19Z" transform="translate(-145 -193.06)"/><path class="cls-4" d="M419.3,347.61,406.48,321c.27,0,.45,0,.62,0,1.76,0,3.52,0,5.28,0a.75.75,0,0,1,.81.52q3,6.51,6,13c0,.1.1.2.19.37l2.07-4.49c1.38-3,2.75-6,4.15-9,.07-.16.27-.37.41-.37,2,0,4.08,0,6.28,0Z" transform="translate(-145 -193.06)"/><path class="cls-4" d="M395,346h-6V311h6Z" transform="translate(-145 -193.06)"/><path class="cls-4" d="M440,346h-6V321h1.19c1.46,0,2.91,0,4.37,0a.44.44,0,0,1,.45.46c0,.52,0,1,0,1.77,3.47-3.77,7.33-3.6,11.58-1l-2.36,5.33c-1-.3-1.69-.82-2.5-1.15-2.3-.95-5.28-.43-6.21,2.8a13.89,13.89,0,0,0-.49,3.51c0,4.19,0,8.39,0,12.58Z" transform="translate(-145 -193.06)"/><path class="cls-4" d="M264,346h-7V321h6v2c1.55-1.5,3-2.73,5.09-2.89a9.49,9.49,0,0,1,5.55,1.47l-2.58,5.16a16.65,16.65,0,0,0-2.45-.95,4,4,0,0,0-4.76,2.51,11.92,11.92,0,0,0-.75,4.65,51.54,51.54,0,0,0,.9,12Z" transform="translate(-145 -193.06)"/><path class="cls-4" d="M399,346V321h6v25Z" transform="translate(-145 -193.06)"/><path class="cls-2" d="M325.62,214.89c.17-.12.33-.36.51-.36,1.43-.05,2.86-.06,4.29-.08a2.36,2.36,0,0,1,.43.06l-.7,2.21c.84-.26,1.6-.53,2.38-.73a5.09,5.09,0,0,1,3.71.42,3,3,0,0,1,1.63,2.58c0,.23.06.45.09.66.9-.3,1.76-.64,2.64-.89a5,5,0,0,1,3.4.27,3.3,3.3,0,0,1,2.05,3.63c-.29,2.37-1.32,4.51-2,6.74-.24.76-.53,1.51-.77,2.26-.42,1.28-.25,1.71.92,2.38.08.05.2.07.25.14a3.09,3.09,0,0,1,.24.44l-.14.13-6.62-2.31,0-.23a1.45,1.45,0,0,1,.51-.14c1.39.24,1.89.06,2.34-1.19.91-2.53,1.8-5.07,2.55-7.65.63-2.15-1-3.73-3.18-3.27-.2,0-.4.12-.6.16a2.43,2.43,0,0,0-2.06,1.87c-.61,2.15-1.41,4.24-2.12,6.36a6,6,0,0,0-.29,1.16,1.6,1.6,0,0,0,.86,1.67,2.42,2.42,0,0,1,.45.24,1.23,1.23,0,0,1,.23.36c-.12,0-.27.1-.38.06-2.05-.68-4.09-1.38-6.14-2.09-.12,0-.19-.22-.29-.33.14-.06.27-.18.41-.18,1.81.07,2,0,2.65-1.75.79-2.23,1.51-4.49,2.24-6.74a5.63,5.63,0,0,0,.19-1.24,2.15,2.15,0,0,0-2.23-2.34,4.63,4.63,0,0,0-2.8.59,1,1,0,0,0-.46.47c-.94,2.65-1.88,5.29-2.76,8-.46,1.4-.21,1.81,1.19,2.41l.25.14c-.05.29-.13.43-.48.3-2-.71-4-1.38-6-2.09-.15-.05-.25-.25-.37-.39l.13-.14c.24,0,.48.07.71.12a1.39,1.39,0,0,0,1.83-.84c.4-.9.71-1.84,1-2.77q1-2.78,1.9-5.54s0,0,0-.06c.52-1.5.17-2-1.42-2.25Z" transform="translate(-145 -193.06)"/><path class="cls-4" d="M248,321h6v25h-6Z" transform="translate(-145 -193.06)"/><path class="cls-2" d="M432.64,276.84c-.05.27-.1.51-.15.76-.25,1.32-1,1.83-2.31,1.39a25.33,25.33,0,0,1-2.43-1.12c-.24-.11-.47-.24-.75-.39a4.9,4.9,0,0,1-1.34,3.15,5.58,5.58,0,0,1-8.74-1.29,7.37,7.37,0,0,1-.83-4.07,9.28,9.28,0,0,0-.85-4c-.12-.32-.24-.63-.37-1l1.33-.46c.32.92.62,1.8.92,2.68.52-.38,1-.76,1.47-1.07a5.31,5.31,0,0,1,7.7,2.68,9.43,9.43,0,0,1,.52,1.74,1.37,1.37,0,0,0,.77,1.05,7,7,0,0,0,1.3.55c.73.2,1.18-.18,1.09-.93a14.18,14.18,0,0,0-.39-1.83c-.45-1.64-1-3.26-1.37-4.93-.43-2.22.13-3.93,2.57-4.61a4.44,4.44,0,0,1,4.19,1.12,12.36,12.36,0,0,1,4.34,7,5.81,5.81,0,0,1-.6,4.3,1.88,1.88,0,0,1-2.62.89C434.92,278,433.8,277.42,432.64,276.84Zm4.52-2.46A12.41,12.41,0,0,0,435.1,268a5.08,5.08,0,0,0-2.29-1.91c-1.43-.51-2.45.21-2.38,1.71a4.2,4.2,0,0,0,.18,1.06c.53,1.9,1.22,3.76,1.57,5.69A2,2,0,0,0,434,276.5c.13,0,.26.07.39.1A2.05,2.05,0,0,0,437.16,274.38Zm-14.31-1.5a7.5,7.5,0,0,0-5,3.06,2.48,2.48,0,0,0,.45,3.44,2.72,2.72,0,0,0,2.44.42,6.78,6.78,0,0,0,4.38-2.75,1.24,1.24,0,0,0,.14-.79c-.08-.65-.24-1.28-.34-1.92C424.67,273.06,424.48,272.87,422.85,272.88Z" transform="translate(-145 -193.06)"/><path class="cls-2" d="M229.09,271.57c0,.43.07.74.11,1.06.31,2.53-.73,5.26-3.73,5.95a6.36,6.36,0,0,1-4.42-.62,9.62,9.62,0,0,1-5.24-6.4,5.31,5.31,0,0,1,3.81-6.54l-2.36-1.67c-.7-.49-1.4-1-2.12-1.45-1.06-.67-1.5-.61-2.38.3-.26.26-.49.54-.75.83l-.49-.32,4.47-6.39.44.33c-.1.21-.18.4-.28.58a1.6,1.6,0,0,0,.59,2.36q3.64,2.6,7.33,5.16,2.56,1.81,5.15,3.61l.09.07c1.33.91,1.67.83,2.54-.53a.75.75,0,0,1,.12-.14c.39.05.45.27.35.6-.41,1.36-.82,2.72-1.21,4.09-.12.42-.29.37-.56.17Zm-8.77-5.7a3.45,3.45,0,0,0-3.06,4.22,7.5,7.5,0,0,0,3.22,4.21,6.25,6.25,0,0,0,4.49,1.49,3.55,3.55,0,0,0,3.1-2.49,2.53,2.53,0,0,0-1.08-3.16c-1.78-1.13-3.46-2.43-5.21-3.61A8.36,8.36,0,0,0,220.32,265.87Z" transform="translate(-145 -193.06)"/><path class="cls-2" d="M338.92,248.59l-.47-.35,4.47-6.39.42.35-.22.48a1.69,1.69,0,0,0,.65,2.54L356.32,254c1.26.88,1.7.77,2.47-.58,0-.05.06-.09.19-.3.13.32.31.53.27.68-.39,1.44-.82,2.88-1.25,4.31a1.75,1.75,0,0,1-.14.24l-1.76-1.17c0,1,.07,1.94,0,2.89a4.78,4.78,0,0,1-4,4.12c-2.47.39-4.44-.64-6.23-2.1a9.14,9.14,0,0,1-3.19-5.33c-.53-2.51,1.08-5.73,3.71-6.13,0,0,.06,0,.15-.12l-2.3-1.6c-.75-.52-1.49-1.06-2.26-1.54-1-.6-1.37-.54-2.16.25C339.51,247.92,339.24,248.24,338.92,248.59Zm12.4,12.76a3.51,3.51,0,0,0,3.68-2.56,2.47,2.47,0,0,0-1.06-3.11c-1.82-1.15-3.56-2.42-5.31-3.67a2.49,2.49,0,0,0-2.84-.1,3.31,3.31,0,0,0-1.56,3.86,7.4,7.4,0,0,0,3.12,4A6.73,6.73,0,0,0,351.32,261.35Z" transform="translate(-145 -193.06)"/><path class="cls-2" d="M282,206.12c0-.28,0-.49,0-.69-.14-1.46.88-2,2.19-1.71,1,.2,1.89.53,2.68.76a13.18,13.18,0,0,1,.74-2.69c1.75-3.37,6.79-3.31,8.81,0a6.62,6.62,0,0,1,1,2.76,9.18,9.18,0,0,0,1.62,4.09,5.76,5.76,0,0,1,.33.57l-1.14.65L297,207.61a17.53,17.53,0,0,1-2,1.71,4.88,4.88,0,0,1-6.51-1.53,11.58,11.58,0,0,1-.92-1.7,2.63,2.63,0,0,0-2.71-1.14.77.77,0,0,0-.31.68,20,20,0,0,0,.89,2.38c.59,1.3,1.29,2.55,1.82,3.87a5.14,5.14,0,0,1,.32,2.1c-.11,2.06-2.8,3.34-4.77,2.67a10.35,10.35,0,0,1-4.35-3.05,9.32,9.32,0,0,1-2.43-4.94,4.28,4.28,0,0,1,.39-2.61,1.89,1.89,0,0,1,2.38-1c.86.23,1.7.53,2.55.8Zm-1.63.45c-1.73.14-2.39.88-2.17,2.38a10.37,10.37,0,0,0,2.73,5.4,4.71,4.71,0,0,0,2.79,1.65c1,.16,2.16-.55,1.76-1.87a9,9,0,0,0-.42-1.17c-.9-2-1.81-3.92-2.73-5.88a.58.58,0,0,0-.36-.29C281.4,206.69,280.8,206.62,280.4,206.57Zm10.44,1.68a1.38,1.38,0,0,0,.29,0,1.64,1.64,0,0,0,.28-.07,7.42,7.42,0,0,0,4.34-3.62,2,2,0,0,0,.15-1.65,2.24,2.24,0,0,0-2.46-1.75,6.23,6.23,0,0,0-4.44,3.34,1.28,1.28,0,0,0-.07.88c.2.7.5,1.36.74,2S290.1,208.26,290.84,208.25Z" transform="translate(-145 -193.06)"/><path class="cls-2" d="M372.52,235a6.71,6.71,0,0,1-1-.72,1.5,1.5,0,0,1,0-2,22,22,0,0,1,1.77-1.71c.24-.22.51-.4.87-.68l-.24-.1c-2.41-1.05-3.37-4.64-1.35-7.18a5.71,5.71,0,0,1,6.29-1.74c.94.3,1.83.77,2.78,1a24.52,24.52,0,0,0,2.93.33v1.24l-2.62-.17c.13.64.26,1.28.38,1.92.5,2.76-2.06,5-4.07,5.25a10.71,10.71,0,0,1-2.59-.09c-1-.11-2.69,1-2.48,1.93a.75.75,0,0,0,.47.45,17.46,17.46,0,0,0,2.28.5c1.6.24,3.23.31,4.79.69a3.42,3.42,0,0,1,1.56,5.82,8.31,8.31,0,0,1-4.1,2.12,9.42,9.42,0,0,1-6.37-.29,6.72,6.72,0,0,1-1.93-1.37,2,2,0,0,1,0-2.89c.71-.69,1.51-1.28,2.27-1.91Zm5,5.5c.27,0,.77,0,1.26-.08a5,5,0,0,0,3.33-1.54,1.43,1.43,0,0,0-.67-2.47,10.29,10.29,0,0,0-1.72-.35c-1.86-.27-3.72-.53-5.59-.76a1,1,0,0,0-.77.15,7.88,7.88,0,0,0-1.21,1.5,1.76,1.76,0,0,0,.88,2.69A10.44,10.44,0,0,0,377.56,240.54Zm2.53-14H380a5.12,5.12,0,0,0,0-.68,7.15,7.15,0,0,0-1-3.34,2.35,2.35,0,0,0-2.37-.92,2,2,0,0,0-1.64,1.34,6.11,6.11,0,0,0,.5,5.57,1,1,0,0,0,.52.37c.62.18,1.25.31,1.87.48,1,.28,1.59,0,1.92-1A15.14,15.14,0,0,0,380.09,226.49Z" transform="translate(-145 -193.06)"/><path class="cls-2" d="M232.15,237.6c-.08-.42-.15-.75-.19-1.09a1.38,1.38,0,0,1,1.44-1.65c1,0,2.09.13,3.13.2h.32a4.39,4.39,0,0,1,.45-4,5.22,5.22,0,0,1,7.58-1.15,5.53,5.53,0,0,1,1.82,2.38,10.67,10.67,0,0,0,3.15,4.69l-1,.91L247.14,236a16.53,16.53,0,0,1-1.64,2.08,4.67,4.67,0,0,1-5.8.43,10.91,10.91,0,0,1-2.13-2.11c-.52-.6-2.22-1-2.85-.5a.7.7,0,0,0-.2.65,26.94,26.94,0,0,0,1.53,2.39c.76,1,1.63,2,2.34,3.1a4.89,4.89,0,0,1,.81,2.09,3.41,3.41,0,0,1-2.86,3.56,5.68,5.68,0,0,1-3.28-.47,10.6,10.6,0,0,1-6.05-5.43,5.12,5.12,0,0,1-.38-2.79,1.87,1.87,0,0,1,1.94-1.72c1.05,0,2.09.18,3.13.28Zm-.25.64-1,.13c-1.78.24-2.47,1.44-1.71,3A11,11,0,0,0,233,246a4.65,4.65,0,0,0,2.92,1,1.5,1.5,0,0,0,1.36-2.28,5.87,5.87,0,0,0-.69-1c-1.2-1.58-2.42-3.13-3.6-4.72C232.69,238.46,232.46,238.12,231.9,238.24Zm11.22-8.07a8.92,8.92,0,0,0-1.17.39,6.54,6.54,0,0,0-3.25,3.82,1.26,1.26,0,0,0,.18,1.29c.37.5.69,1.05,1.05,1.57.55.81.75.87,1.68.49a2.17,2.17,0,0,0,.41-.19,7.3,7.3,0,0,0,3.26-4.18A2.51,2.51,0,0,0,243.12,230.17Z" transform="translate(-145 -193.06)"/><path class="cls-2" d="M349.5,220.16l-4-2.3-12.79-7.4a1.62,1.62,0,0,0-2.49.42c-.22.24-.39.44-.7.05l3.74-6.48c.41.08.54.22.35.62-.77,1.67-.57,2.31,1,3.22l5,2.89c-.11-.67-.23-1.24-.27-1.8-.21-2.6,1.12-5.24,4.29-5.7a8.25,8.25,0,0,1,6.65,2.26,7.28,7.28,0,0,1,2.82,6.64,5.94,5.94,0,0,1-2.79,4.62,1.41,1.41,0,0,0-.82,1.55A10.71,10.71,0,0,1,349.5,220.16Zm-5.07-13.57a7.6,7.6,0,0,0-1,.09,4,4,0,0,0-2.92,3.59,2,2,0,0,0,1.23,2.23c2,1.05,3.87,2.2,5.81,3.3a2.56,2.56,0,0,0,2.7.21,4,4,0,0,0,1.66-4.32,5.67,5.67,0,0,0-1.75-2.5A9.51,9.51,0,0,0,344.43,206.59Z" transform="translate(-145 -193.06)"/><path class="cls-2" d="M281.34,245.47c.12-.4.27-.48.64-.34,1.82.72,2.36.5,3.28-1.25s1.71-3.22,2.63-4.95l-1,.2a6.3,6.3,0,0,1-3.05,0,4.88,4.88,0,0,1-3.71-4.83c-.17-3,2.27-7.83,6.61-8.77a6.59,6.59,0,0,1,6.9,2.7,1.08,1.08,0,0,0,1.11.57c.51,0,1,0,1.63,0a5.92,5.92,0,0,1-.26.67l-8.7,16.3c-.64,1.19-.54,1.77.53,2.61.31.24.24.41,0,.66Zm1.77-11.38c.05.42.06.73.11,1,.38,2.24,2.63,3.09,4.31,3a1.51,1.51,0,0,0,1.35-.88c1.1-2.07,2.22-4.12,3.3-6.19.47-.93.86-1.93.15-2.91a3.79,3.79,0,0,0-5-1.15A9.32,9.32,0,0,0,283.11,234.09Z" transform="translate(-145 -193.06)"/><path class="cls-2" d="M391.74,245.09a17.79,17.79,0,0,1,.86-2.82c1.62-3.21,4.93-3.64,7.61-2a9.31,9.31,0,0,1,4.35,6,6.83,6.83,0,0,1-2.83,7.36,8.37,8.37,0,0,1-2.26.88c-.44.13-.73.26-.84.75s-.37,1-.6,1.66c-.56-.66-1-1.2-1.5-1.75l-11-13.12a1.62,1.62,0,0,0-2.4-.44c-.24.12-.47.33-.65-.15l5.72-4.84.39.45c-.23.2-.46.38-.65.58a1.75,1.75,0,0,0-.16,2.64c.67.88,1.39,1.72,2.1,2.57Zm11.4,4.57c0-.19,0-.38,0-.57a2.8,2.8,0,0,0-.06-.28,9.41,9.41,0,0,0-3.66-5.42,5.31,5.31,0,0,0-2.84-1.22c-1.69-.14-3.05,1.11-3.78,2.71a1.62,1.62,0,0,0,.29,1.93c1.56,1.8,3.06,3.64,4.61,5.45a2.58,2.58,0,0,0,1.89,1.06A3.73,3.73,0,0,0,403.14,249.66Z" transform="translate(-145 -193.06)"/><path class="cls-2" d="M268.82,275.76l-6.77,1.42-.13-.14a4,4,0,0,1,.27-.4c0-.05.14-.06.21-.09a1.63,1.63,0,0,0,1.11-2.19c-.36-1.8-.72-3.61-1.1-5.41q-1.08-5.06-2.17-10.13a3.69,3.69,0,0,0-.21-.64c-.27-.65-.49-.78-1.19-.67-.28.05-.55.12-.84.19-.27-.35-.18-.56.23-.77,1.28-.66,2.53-1.37,3.88-2.1.67,3.14,1.33,6.2,2,9.27a19.72,19.72,0,0,1,1.66-2,4.73,4.73,0,0,1,4-1.35,3.16,3.16,0,0,1,2.65,2.09,29.34,29.34,0,0,1,1.14,3.92c.43,1.75.75,3.52,1.17,5.28.29,1.22.64,1.46,1.9,1.53.18,0,.34.18.51.27l-.06.2-6.61,1.38-.13-.12.32-.46.05,0c1.45-.69,1.45-1,1.21-2.45-.34-2-.84-4-1.28-6.06a12.66,12.66,0,0,0-.55-2c-.58-1.42-1.34-1.9-3.18-1.29a4.39,4.39,0,0,0-2.3,2.21,1.41,1.41,0,0,0,0,.81c.56,2.64,1.11,5.27,1.72,7.89.28,1.21.67,1.44,1.91,1.43C268.68,275.31,268.68,275.31,268.82,275.76Z" transform="translate(-145 -193.06)"/><path class="cls-2" d="M287.66,225.22c-.29-.12-.62-.16-.66-.29-.46-1.44-.89-2.9-1.34-4.43h9.56c-.51-.57-1-1-1.34-1.53a5,5,0,0,1-.88-4.58,3.44,3.44,0,0,1,3.27-2.44c1.65-.16,3.32-.1,5-.14,1.43,0,2.86,0,4.29-.11.93-.06,1.18-.36,1.39-1.3.07-.27,0-.66.56-.49,0,.11,0,.24,0,.37,0,2,0,3.94,0,5.9a1.75,1.75,0,0,1-.2.52c-.12-.15-.33-.29-.36-.46-.24-1.32-.53-1.66-2.1-1.69-2.44,0-4.89,0-7.34,0a4.37,4.37,0,0,0-1.13.14c-1.59.44-2.08,1.37-1.69,3.16a4.88,4.88,0,0,0,1.54,2.37.89.89,0,0,0,.56.18c2.72,0,5.44,0,8.16,0a2,2,0,0,0,2-1.64c.05-.25.08-.38.15-.43l3,4.55-2.76,2.37c-.13-.13-.35-.25-.38-.39-.24-1.6-1-1.68-2.25-1.7-5.25,0-10.5,0-15.74,0a1.4,1.4,0,0,0-1.42,1.48C287.59,224.78,287.62,224.9,287.66,225.22Z" transform="translate(-145 -193.06)"/><path class="cls-2" d="M259.13,232.57c.31-.11.52-.27.65-.22,1.48.54,2.94,1.1,4.46,1.68l-5.61,7.44c.84,0,1.67-.13,2.48-.08a5.19,5.19,0,0,1,4.42,4.29c.6,3.35-2.47,8-6.58,8.89a7.9,7.9,0,0,1-8.21-3.68l-.44-.73a1.88,1.88,0,0,1,.15-2.34c3.13-4.09,6.2-8.22,9.29-12.34C260.86,234,260.83,233.73,259.13,232.57ZM262.65,246a3.59,3.59,0,0,0-3.48-3.46,2.22,2.22,0,0,0-2.05.88c-1.51,2-3,4-4.52,6a1.3,1.3,0,0,0-.17,1.1,7.7,7.7,0,0,0,1.38,1.91,3.4,3.4,0,0,0,3.47.91C260.45,252.35,262.5,248.8,262.65,246Z" transform="translate(-145 -193.06)"/><path class="cls-2" d="M311.33,250.19c-.19-.79-.35-1.44-.5-2.1-.28-1.18-.55-2.37-.83-3.55a3.55,3.55,0,0,0-.29-.74c-.24-.48-.58-.53-.93-.12s-.43.58-.76,1c-.07-.29-.2-.51-.13-.62,1-1.83,1.94-3.65,3-5.65.11.29.27.49.22.6-1,2-.48,3.93,0,5.9.24,1,.48,1.95.75,3,.52-.08,1-.14,1.56-.24,2.4-.45,4.81-.89,7.2-1.39a4.5,4.5,0,0,0,2.68-1.63c.08-.1.27-.1.41-.15,0,.14.07.32,0,.43-1,1.85-2,3.69-2.92,5.55-.18.34-.35.28-.61.05.08-.19.17-.39.25-.6.22-.54,0-.8-.57-.73-1,.11-2,.28-3,.44l-4.94.82c.25.16.44.3.64.4,1.33.71,2.66,1.4,4,2.11s1.82.58,2.63-.68l.28-.44c.37.06.47.19.27.56-1.06,2-2.11,4-3.14,5.95-.18.33-.34.36-.6.12.14-.47.29-.93.41-1.4a1.2,1.2,0,0,0-.64-1.44c-1.14-.65-2.29-1.28-3.45-1.9L301.57,248l-.31-.14c-1.09-.52-1.5-.39-2.06.66a3.93,3.93,0,0,1-.21.41,1.58,1.58,0,0,1-.34.29c-.06-.15-.21-.32-.18-.46.22-1.06.48-2.11.71-3.16.12-.54.19-1.08.31-1.75Z" transform="translate(-145 -193.06)"/><path class="cls-2" d="M203.89,266.3a7.52,7.52,0,0,1-6.68,7.43c-3.29.43-8.05-1.63-9.29-5.84a7.84,7.84,0,0,1,6-9.66,9,9,0,0,1,10,7.27A7.12,7.12,0,0,1,203.89,266.3Zm-10.64-5.14c-.34,0-.9.06-1.44.16a3.7,3.7,0,0,0-2.94,3.64,3.93,3.93,0,0,0,1.71,3.09,11.74,11.74,0,0,0,8.87,2.68,3.78,3.78,0,0,0,3.36-3.47,3.69,3.69,0,0,0-1.24-2.73A11.5,11.5,0,0,0,193.25,261.16Z" transform="translate(-145 -193.06)"/><path class="cls-2" d="M444.56,252.27a1.1,1.1,0,0,1,1.17.55,4.51,4.51,0,0,1,.75,2.41,2.17,2.17,0,0,1-2.32,2.27h-.54c.34.88.73,1.76,1,2.67a4.51,4.51,0,0,1-.27,3.86,3.71,3.71,0,0,1-5.54.77,6.38,6.38,0,0,1-2.17-4c-.32-1.57-.55-3.15-.82-4.72,0-.13-.1-.34-.18-.36a23.63,23.63,0,0,0-3.41-.52,1.77,1.77,0,0,0-1.67,1.56,5.34,5.34,0,0,0-.11,1.91c.11.9.66,1.27,1.6,1.29a5.08,5.08,0,0,1,.68,0,1.47,1.47,0,0,1,1.23,1.9,1.55,1.55,0,0,1-2,1.08,3.52,3.52,0,0,1-2.21-2.46,2.61,2.61,0,0,1-.11-.68c-.22-6.44,2.49-7.69,5.32-7.14,2.61.51,5.19,1.13,7.78,1.7a5.2,5.2,0,0,0,1,.18,1.07,1.07,0,0,0,1.06-1.48Zm-7.89,3.89c0,.29,0,.52.06.74a9.81,9.81,0,0,0,1.45,4.39,3.1,3.1,0,0,0,3.12,1.38,2.63,2.63,0,0,0,1.95-3.3c-.17-.83-.36-1.7-1.32-2C440.2,257,438.45,256.58,436.67,256.16Z" transform="translate(-145 -193.06)"/><path class="cls-2" d="M235.82,264.56c-.24.2-.41.45-.55.43-1.49-.13-3-.29-4.48-.46,0,0-.07,0-.17-.08l1-2.25c-.84.23-1.61.47-2.4.65a4.22,4.22,0,0,1-4.42-1.52,3.71,3.71,0,0,1-.31-3.46c.68-1.81,1.49-3.57,2.25-5.35.4-.94.84-1.87,1.22-2.82.47-1.13.28-1.64-.73-2.31-.13-.08-.17-.3-.25-.46l.18-.12,3.95,1.75c.6.27,1.21.53,1.81.83.12.05.17.23.25.35-.13,0-.27.16-.4.14-1.4-.22-1.85,0-2.43,1.28-1,2.26-2.06,4.52-3,6.82a5.37,5.37,0,0,0-.3,2,2.08,2.08,0,0,0,2.2,1.67,13.39,13.39,0,0,0,2.5-.45c.16,0,.32-.27.4-.44,1.15-2.57,2.29-5.13,3.41-7.71.48-1.12.29-1.64-.73-2.29-.39-.24-.39-.24-.16-.66l6.18,2.78c0,.36-.16.46-.5.39-1.37-.27-1.74-.09-2.32,1.19-1.16,2.56-2.31,5.12-3.44,7.7C233.92,263.52,234.19,264.06,235.82,264.56Z" transform="translate(-145 -193.06)"/><path class="cls-2" d="M319.19,207.15a8.3,8.3,0,0,1-2.45-2.63,7.51,7.51,0,0,1-1.24-3.1,6.24,6.24,0,0,1,5-7.13,9.58,9.58,0,0,1,10.12,4.49,6.32,6.32,0,0,1-3.8,9.15,6.51,6.51,0,0,1-3.54-.24c.26-.87.52-1.72.78-2.57.72-2.35,1.43-4.71,2.17-7.06.14-.42,0-.55-.38-.64a9.39,9.39,0,0,0-4.68-.09,5,5,0,0,0-3.09,7.15,18.31,18.31,0,0,0,1.19,1.73C319.6,206.65,319.62,206.63,319.19,207.15Zm6.19-2.47c.71,0,1.3.12,1.88.13a3.2,3.2,0,0,0,3-3.71c-.32-1.61-1.49-2.41-2.82-3.16Z" transform="translate(-145 -193.06)"/><path class="cls-2" d="M219.41,254.46c-.55-3.53-1.09-7-1.64-10.42a7.25,7.25,0,0,0-6.27,4.27,5,5,0,0,0,2.12,5.76,8.37,8.37,0,0,0,1.56.84c.5.21.51.47.24.9-2.29-.57-4.41-1.51-5.71-3.56-1.83-2.9-1.81-6.81,2.09-9.11a9.34,9.34,0,0,1,9.77-.25,6.48,6.48,0,0,1,1.85,9.58A6.28,6.28,0,0,1,219.41,254.46Zm.58-3.7c2.62-.59,3.72-1.94,3.31-4.07s-2.64-2.95-4.39-2.73Z" transform="translate(-145 -193.06)"/><path class="cls-2" d="M203.57,254.05l3.81-1.88.52,1.06-3.72,1.84.93,1.94,3.84,7.84c1,2,1.46,2.22,3.61,1.45a1.69,1.69,0,0,1,.63,0c-.15.16-.26.38-.44.47-1,.5-1.95,1-2.92,1.44l-4.58,2.23L205,270c.21-.13.41-.23.6-.36,1.35-.86,1.59-1.6.94-3.06-.42-.94-.89-1.85-1.33-2.77-1.14-2.32-2.27-4.65-3.41-7l-.27-.52L199,257.57l-.51-1,2.5-1.25-.24-.62a11.54,11.54,0,0,1-1-4.06c-.14-3.13,1.93-5,4.62-5.56a5.18,5.18,0,0,1,1.8,0,1.38,1.38,0,0,1,1.15,1.2,1.31,1.31,0,0,1-.48,1.32,1.39,1.39,0,0,1-1.6.15c-.63-.27-1.2-.66-1.84-.89a1.56,1.56,0,0,0-2,1.3,3,3,0,0,0,.13,1.35C202.16,251,202.87,252.52,203.57,254.05Z" transform="translate(-145 -193.06)"/><path class="cls-2" d="M316.13,223.44a6.87,6.87,0,0,1-7.11-7.2,7,7,0,0,1,4-6.22,7.47,7.47,0,0,1,7.81-.06,6.81,6.81,0,0,1,3.27,5.12c.61,4.14-2,7-5.94,8A18.9,18.9,0,0,1,316.13,223.44Zm-5.8-5.61a3.1,3.1,0,0,0,3.46,3.24,10.63,10.63,0,0,0,8.08-4,3.47,3.47,0,0,0-3.17-5.81,11.21,11.21,0,0,0-7.28,3.85A3.83,3.83,0,0,0,310.33,217.83Z" transform="translate(-145 -193.06)"/><path class="cls-2" d="M360.36,253.81c0-4.16,2.53-7,6.05-7.52a7.06,7.06,0,0,1,8,5.55,7.75,7.75,0,0,1-1.66,7.42,7,7,0,0,1-9.15.8A8.18,8.18,0,0,1,360.36,253.81Zm2.56-2.32c.1.7.14,1.4.3,2.08a10.38,10.38,0,0,0,3.49,5.92,3.24,3.24,0,0,0,5.27-1.75,8.19,8.19,0,0,0,0-3.62,10.64,10.64,0,0,0-3.23-5.83,3.45,3.45,0,0,0-4.54-.07A4.17,4.17,0,0,0,362.92,251.49Z" transform="translate(-145 -193.06)"/><path class="cls-2" d="M239.93,280.23a6.64,6.64,0,0,1-6.91-5.51,7.1,7.1,0,0,1,2.64-7.08A7.57,7.57,0,0,1,243,266a6.83,6.83,0,0,1,4.86,5.34,6.71,6.71,0,0,1-2.89,7.27A8,8,0,0,1,239.93,280.23Zm-2.45-1.9a8.46,8.46,0,0,0,4.43-1.4,10.27,10.27,0,0,0,4-4.19,3.44,3.44,0,0,0-.24-3.72,3.19,3.19,0,0,0-3.2-1.3,8.82,8.82,0,0,0-3.79,1.47,9.5,9.5,0,0,0-4.1,4.82C233.89,276,235.28,278.47,237.48,278.33Z" transform="translate(-145 -193.06)"/><path class="cls-2" d="M331.67,278.45c0,4.24-2.42,6.78-6,7.5a6.73,6.73,0,0,1-7.16-3.28,8.13,8.13,0,0,1-.68-7.84,6.93,6.93,0,0,1,10.33-2.6A8.24,8.24,0,0,1,331.67,278.45Zm-12.29-2.58a6.93,6.93,0,0,0,0,.91,11.15,11.15,0,0,0,4,6.84,3.65,3.65,0,0,0,4.33.54,3.6,3.6,0,0,0,1.63-3.63,11.31,11.31,0,0,0-4.15-7.25,3.73,3.73,0,0,0-3.39-.9C320.16,272.79,319.39,273.91,319.38,275.87Z" transform="translate(-145 -193.06)"/><path class="cls-2" d="M303.3,265.9a1.19,1.19,0,0,1-1,1.09,3.56,3.56,0,0,1-2.72,0c-1-.47-1.27-1.26-1-2.78-.8.17-1.58.37-2.37.48a4.33,4.33,0,0,1-3.68-.8,3.47,3.47,0,0,1,.08-5.28,4.92,4.92,0,0,1,3.21-1.28c1.87,0,3.74,0,5.73,0,.33-1,.73-2,1-3a1.8,1.8,0,0,0-.34-1.32,2.94,2.94,0,0,0-2.81-1.06A1.28,1.28,0,0,0,298.3,253c-.07.26-.13.52-.22.77a1.26,1.26,0,0,1-1.83.88,1.38,1.38,0,0,1-.76-2,3.08,3.08,0,0,1,2.37-1.6,6.5,6.5,0,0,1,6.18,2.15,3.33,3.33,0,0,1,.47,3.65c-.78,2-1.63,4-2.45,6-.23.54-.47,1.08-.66,1.64-.37,1.07.11,1.66,1.25,1.54A6.22,6.22,0,0,0,303.3,265.9ZM301.21,258c-.79,0-1.48,0-2.16,0a6.47,6.47,0,0,0-3.16.82,2.73,2.73,0,0,0-1.37,2.86,2.2,2.2,0,0,0,1.82,1.8,5.45,5.45,0,0,0,.79.14,2.14,2.14,0,0,0,2.18-1.05C299.93,261.1,300.53,259.63,301.21,258Z" transform="translate(-145 -193.06)"/><path class="cls-2" d="M400.16,277.73a1,1,0,0,1,.44,1.21,8.62,8.62,0,0,1-.86,1.9,2,2,0,0,1-3,.3l-.45-.39c-.31.82-.57,1.62-.9,2.39a4.27,4.27,0,0,1-2.6,2.57,3.49,3.49,0,0,1-4.41-2.91,5.48,5.48,0,0,1,.8-3.7c.8-1.39,1.67-2.73,2.54-4.07a.59.59,0,0,0,0-.8c-.4-.51-.77-1-1.18-1.54-1.12-1.37-2.28-1.17-3.49-.12a3.61,3.61,0,0,0-.68.91,1.24,1.24,0,0,0,.23,1.61c.15.16.31.3.45.45a1.36,1.36,0,0,1,.43,1.44,1.52,1.52,0,0,1-1.37,1,1.38,1.38,0,0,1-1.29-.81,3.27,3.27,0,0,1-.16-2.6,6.86,6.86,0,0,1,5.18-4.32,3.3,3.3,0,0,1,3,1.18c1,1.23,1.95,2.54,2.89,3.83.74,1,1.45,2.05,2.18,3.08a3.09,3.09,0,0,0,.33.39.91.91,0,0,0,1.57-.14A6.87,6.87,0,0,0,400.16,277.73Zm-7.75-2.44c-.35.53-.68,1-1,1.45a9.42,9.42,0,0,0-.66,1.26,5.34,5.34,0,0,0-.52,2.7,2.74,2.74,0,0,0,2,2.3,2.92,2.92,0,0,0,3.19-2.81,1.58,1.58,0,0,0-.23-.86C394.33,278,393.39,276.68,392.41,275.29Z" transform="translate(-145 -193.06)"/><path class="cls-2" d="M368,233.05a1.16,1.16,0,0,1-.53,1.36,3.57,3.57,0,0,1-2.56.89,1.76,1.76,0,0,1-1.75-1.51c-.07-.24-.1-.48-.15-.72-.75.46-1.46,1-2.23,1.37a4.32,4.32,0,0,1-3.85.26c-2.29-1-2.25-4.06-1-5.57a9,9,0,0,1,4-2.4c1-.38,2-.7,3-1,.29-.09.41-.2.4-.5,0-.86,0-1.71,0-2.56a1.65,1.65,0,0,0-1.39-1.6,3.31,3.31,0,0,0-2.13.06,1.34,1.34,0,0,0-1,1.54,5.05,5.05,0,0,1,.07,1,1.36,1.36,0,0,1-1.83,1.18,1.52,1.52,0,0,1-.88-2.1,3.78,3.78,0,0,1,2.38-2.24,6.8,6.8,0,0,1,5.68.32,3.19,3.19,0,0,1,1.68,2.76c.06,1.3,0,2.62,0,3.93-.05,1.69-.16,3.39-.17,5.08,0,.91.73,1.28,1.55.85Zm-4.64-6.66c-.68.23-1.31.41-1.92.66a6.44,6.44,0,0,0-2.92,2,2.87,2.87,0,0,0-.25,3.06,2.43,2.43,0,0,0,2.65,1,2.24,2.24,0,0,0,2.17-2C363.19,229.61,363.24,228.05,363.33,226.39Z" transform="translate(-145 -193.06)"/><path class="cls-2" d="M250.6,285.64c-.79-.16-1.55-.29-2.3-.49a4.82,4.82,0,0,1-2.52-1.37,3.17,3.17,0,0,1-.7-3.44,3.74,3.74,0,0,1,3-2.38,7.94,7.94,0,0,1,4.45,1c1,.44,2,.91,3,1.41a.65.65,0,0,0,.93-.17c.35-.4.76-.75,1.14-1.12,1.42-1.38,1-2.59-.36-3.75-1.06-.88-1.88-.74-2.7.36a1.46,1.46,0,0,1-1.58.76,1.4,1.4,0,0,1-1.11-1.18,1.49,1.49,0,0,1,.7-1.52,3.43,3.43,0,0,1,3.09-.28,6.65,6.65,0,0,1,4.29,4.2,3.28,3.28,0,0,1-.82,3.49c-.87,1-1.83,1.84-2.76,2.74s-2.07,2-3.13,2.93-.93,1.94.58,2.26a2.37,2.37,0,0,1,.31.08,1.2,1.2,0,0,1-1.25.6,4.11,4.11,0,0,1-2.27-.82,1.86,1.86,0,0,1-.53-2.4C250.24,286.22,250.42,286,250.6,285.64Zm4.83-4.5c-.22-.13-.34-.22-.48-.29a8.43,8.43,0,0,0-4.83-1.2,2.69,2.69,0,0,0-2.28,3,3.25,3.25,0,0,0,3.44,2.12,1.2,1.2,0,0,0,.45-.23C253,283.45,254.16,282.32,255.43,281.14Z" transform="translate(-145 -193.06)"/><path class="cls-2" d="M274.49,223.64l-7.26,6.77c1.6,1.48,3.24,2.76,5.52,2.72a4.48,4.48,0,0,0,4.34-3.93,25.35,25.35,0,0,0-.07-2.61c0-.17.16-.35.25-.52.13.06.33.1.37.2,1,2.44,1.13,5.83-1.12,8a5.74,5.74,0,0,1-7.27.94,8.94,8.94,0,0,1-4.71-6.07,6.14,6.14,0,0,1,4.35-7.42C271.12,221.16,272.9,222,274.49,223.64Zm-7.93,5.89,4.74-4.4c-2-1.69-3.31-1.84-4.71-.58S265.24,227.62,266.56,229.53Z" transform="translate(-145 -193.06)"/><path class="cls-2" d="M321.82,228.85,313,233a6.84,6.84,0,0,0,5.06,4.51,4.62,4.62,0,0,0,4.93-3.3,16.07,16.07,0,0,0,.37-1.67c.07-.39.2-.65.72-.46a8.36,8.36,0,0,1-.34,3.51,6.28,6.28,0,0,1-5.3,4.73,5.23,5.23,0,0,1-4.34-1.35,8.72,8.72,0,0,1-3.35-8,6.06,6.06,0,0,1,6.77-5.6A5.47,5.47,0,0,1,321.82,228.85ZM312.48,232l5.91-2.72c-1.26-2.16-2.53-2.76-4.26-2S311.88,229.55,312.48,232Z" transform="translate(-145 -193.06)"/><path class="cls-2" d="M398.68,260.38a10.56,10.56,0,0,0-3.54,2.66,4.68,4.68,0,0,0,2,7.34,13.73,13.73,0,0,0,1.81.47c.4.08.63.24.5.75a9,9,0,0,1-4-.61,6.17,6.17,0,0,1-4.08-6.55,5.79,5.79,0,0,1,2-3.62,8.78,8.78,0,0,1,8.52-2.34,5.93,5.93,0,0,1,3.69,8.67,5.85,5.85,0,0,1-2.81,2.3C401.38,266.44,400,263.44,398.68,260.38Zm.93-.52,2.72,6.13c.42-.29.77-.52,1.11-.77a2.58,2.58,0,0,0,1.17-2.87,2.91,2.91,0,0,0-2.39-2.46A17.2,17.2,0,0,0,399.61,259.86Z" transform="translate(-145 -193.06)"/><path class="cls-2" d="M367.72,270.84l2-1.81.72.8-1.85,1.76c.65.94,1.33,1.81,1.87,2.76a4.89,4.89,0,0,1,.35,4.85,5.56,5.56,0,0,1-3.5,2.91,1.62,1.62,0,0,1-1.65-.33,1.3,1.3,0,0,1,1.08-2.26c.55.09,1.08.22,1.63.29a1.54,1.54,0,0,0,1.69-2,2.36,2.36,0,0,0-.4-.81c-1-1.15-2-2.27-3.09-3.46l-2.92,2.66-.74-.79,2.83-2.67c-1.11-1.19-2.18-2.36-3.26-3.51-1.28-1.36-2.55-2.74-3.85-4.08s-1.69-1.32-3.16-.3l-.66.48-.31-.33,6-5.69c.36.14.38.34.14.6-1.35,1.45-1.15,2.15.23,3.65,2,2.19,4.06,4.36,6.09,6.53Z" transform="translate(-145 -193.06)"/><path class="cls-2" d="M410.45,257.09l7.84,2.51c0,.43-.14.53-.5.41l-.1,0c-1.49-.34-2.24,0-2.72,1.41-1.12,3.28-2.17,6.58-3.25,9.88,0,.07,0,.14,0,.24l2.48.85-.32,1-2.34-.72a41.37,41.37,0,0,1-2.21,3.69c-2.27,3.06-6.11,2-7.85.07a1.47,1.47,0,0,1-.15-1.88,1.22,1.22,0,0,1,1.56-.44,1.69,1.69,0,0,1,.7.7,6.78,6.78,0,0,1,.47,1.4,1.47,1.47,0,0,0,1.17,1.18,1.54,1.54,0,0,0,1.67-.62,7.86,7.86,0,0,0,.51-.89,6,6,0,0,0,.3-.8c.36-1.09.71-2.19,1.08-3.34l-3.71-1.2.32-1,3.68,1.19.67-2.05c.83-2.56,1.68-5.11,2.49-7.68.62-2,.39-2.42-1.51-3.23C410.4,257.59,410.06,257.5,410.45,257.09Z" transform="translate(-145 -193.06)"/><path class="cls-2" d="M273.45,211.47l.93.51-1.94,3.38,1.58.91,7.69,4.39.2.11c1.19.55,1.55.47,2.41-.53.26-.31.5-.63.76-1l.43.21c-1.41,2.43-2.79,4.82-4.17,7.22l-.18,0c-.05-.16-.1-.31-.14-.47s0-.06,0-.1c.71-1.79.59-2.27-1-3.24-2.91-1.73-5.85-3.41-8.78-5.1,0,0-.06,0-.14,0L269.77,220l-1-.55,1.29-2.26a16.45,16.45,0,0,1-1.95-1.45,11.6,11.6,0,0,1-2-2.53c-1-1.79-.45-3.49.66-5.07a4,4,0,0,1,1.87-1.54,1.44,1.44,0,0,1,1.7.4,1.3,1.3,0,0,1-.84,2.11,7.07,7.07,0,0,1-1.3.12,1.59,1.59,0,0,0-1.55,1.05,1.54,1.54,0,0,0,.38,1.73,2.83,2.83,0,0,0,.64.56c1.24.75,2.49,1.47,3.79,2.24C272.14,213.72,272.78,212.63,273.45,211.47Z" transform="translate(-145 -193.06)"/><path class="cls-2" d="M320.18,263.41l-3.62-1.63.46-1,3.51,1.59c1.09-2.43,2.17-4.84,3.24-7.25.45-1,.87-2.06,1.28-3.1a1.3,1.3,0,0,0-.53-1.69c-.44-.3-.89-.58-1.49-1,.22-.1.42-.28.53-.23,2.45,1.07,4.89,2.16,7.34,3.25l.05.19-.51.17s-.1,0-.16-.05c-1.66-.54-2.22-.36-2.95,1.23-1.46,3.15-2.85,6.33-4.29,9.55l2.43,1.12-.45,1-2.37-1a31.64,31.64,0,0,1-1.72,2.69,5,5,0,0,1-4.23,2.33,5.4,5.4,0,0,1-4.27-2.21A1.44,1.44,0,0,1,313,265a1.2,1.2,0,0,1,1.56.76c.19.57.29,1.18.44,1.76a1.52,1.52,0,0,0,2.52.77,2.46,2.46,0,0,0,.66-.78C318.88,266.18,319.51,264.82,320.18,263.41Z" transform="translate(-145 -193.06)"/><path class="cls-2" d="M245.15,246.62l3.85.54-.13,1.07-3.86-.52c-.25,1.76-.49,3.49-.73,5.22-.22,1.52-.44,3-.63,4.57a16.32,16.32,0,0,0-.09,1.71,1.12,1.12,0,0,0,.78,1.09c.46.17.94.29,1.4.47a1.88,1.88,0,0,1,.44.37l-.11.2c-.77-.1-1.54-.19-2.3-.3l-5.37-.76a.88.88,0,0,1-.33,0,1.79,1.79,0,0,1-.27-.28c.11-.08.21-.21.33-.22.41-.05.83-.05,1.25-.08a1.32,1.32,0,0,0,1.24-1.15c.23-1.11.41-2.24.58-3.36.3-2,.58-4,.87-6,.09-.56.16-1.13.24-1.76l-2.63-.42.17-1.07,2.51.34c.3-1,.54-2.07.92-3a5,5,0,0,1,3.42-3.41,5.42,5.42,0,0,1,4.61.85c1.1.76,1.12,2,.09,2.55a1.21,1.21,0,0,1-1.66-.38,15.69,15.69,0,0,1-.78-1.46,1.44,1.44,0,0,0-1.37-.85,1.41,1.41,0,0,0-1.44.83,9.32,9.32,0,0,0-.54,2C245.42,244.34,245.31,245.46,245.15,246.62Z" transform="translate(-145 -193.06)"/><path class="cls-2" d="M224,239.55l.16.45a.59.59,0,0,1-.09.11,9.12,9.12,0,0,1-6.16,1,6.12,6.12,0,0,1-4.58-5.25c-.38-3.3,1.18-5.71,3.63-7.6a7.48,7.48,0,0,1,7.78-1.24,6.37,6.37,0,0,1,4.11,4.56,4.28,4.28,0,0,1,0,1.95,1.56,1.56,0,0,1-1.91,1.19,1.67,1.67,0,0,1-1.09-2.23c.15-.43.38-.83.57-1.24A1.76,1.76,0,0,0,226,229a3.92,3.92,0,0,0-4.49-.81,7.65,7.65,0,0,0-4.82,5.92,4.74,4.74,0,0,0,.46,3.48,4.94,4.94,0,0,0,5.55,2.3Z" transform="translate(-145 -193.06)"/><path class="cls-2" d="M306,243.63l-5.92-2.37c0-.39.11-.48.51-.37.83.22,1.26-.15,1.12-1-.28-1.6-.61-3.2-.92-4.8a1.19,1.19,0,0,0-.17-.34c-1.51,1.09-3,2.14-4.46,3.23-.52.39-.47.7.1,1.05a1.17,1.17,0,0,1,.29.17,1.51,1.51,0,0,1,.2.35c-.14,0-.31.16-.42.11-1.32-.5-2.65-1-4-1.57l.18-.49a2.92,2.92,0,0,0,2.52-.49c1.75-1.18,3.52-2.34,5.27-3.53a.62.62,0,0,0,.25-.48q-.58-3-1.22-6c-.2-1-.22-1-1.7-2,.24-.1.45-.26.57-.22,2,.78,3.94,1.58,5.91,2.38-.06.36-.17.45-.53.35-1.08-.3-1.42.05-1.22,1.15.14.84.26,1.69.4,2.53,0,.13.08.25.15.46,1-.67,1.9-1.29,2.8-2,.6-.45.55-.89-.07-1.3-.41-.27-.41-.27-.22-.69l4.67,1.87,0,.19c-.18.06-.39.22-.55.19a3.57,3.57,0,0,0-3,.66c-1,.67-1.95,1.33-3,2a.81.81,0,0,0-.45,1c.53,2.41,1,4.83,1.5,7.25A3,3,0,0,0,306,243.1c.12.06.13.29.19.45Z" transform="translate(-145 -193.06)"/><path class="cls-2" d="M418.3,262.41c.4-.08.6-.06.68.42a6.16,6.16,0,0,0,1.37,3.44,4,4,0,0,0,3.31,1.23,2.23,2.23,0,0,0,2-1.56,2.35,2.35,0,0,0-.6-2.63,19.47,19.47,0,0,0-1.91-1.44c-1.06-.81-2.18-1.54-3.16-2.43A3.93,3.93,0,0,1,419,254.9a4.23,4.23,0,0,1,3.87-2.75,6.56,6.56,0,0,1,3,.54c.56.22,1.14.59,1.75.07.06,0,.18,0,.36,0-.07,1.56-.13,3.1-.2,4.64-.4.11-.6.07-.66-.41a4.85,4.85,0,0,0-1.47-3.19,3.21,3.21,0,0,0-3.15-.66,2.22,2.22,0,0,0-.79,3.79,20.27,20.27,0,0,0,2.82,2,12.71,12.71,0,0,1,3,2.41,4.22,4.22,0,0,1-2.63,6.84,7.66,7.66,0,0,1-4.21-.3c-.43-.15-.88-.25-1.3-.42a.65.65,0,0,0-.81.19c-.1.1-.29.11-.44.16a1.22,1.22,0,0,1-.12-.4C418.06,265.75,418.18,264.08,418.3,262.41Z" transform="translate(-145 -193.06)"/><path class="cls-2" d="M253.92,271.55a6.46,6.46,0,0,1-5.48-2.71c-2.17-3.07-2.49-6.68-.51-9.66a6.42,6.42,0,0,1,7-2.65,3.37,3.37,0,0,1,1.19.65,1.53,1.53,0,1,1-2.17,2.07l-.84-1a1.55,1.55,0,0,0-1.83-.51,3.68,3.68,0,0,0-2.72,3.67,7.32,7.32,0,0,0,3.2,6.46,4.49,4.49,0,0,0,7-2.55c.11-.41.19-.82.32-1.21a.41.41,0,0,1,.3-.22.38.38,0,0,1,.26.29,6.89,6.89,0,0,1-4.44,7.14A11.94,11.94,0,0,1,253.92,271.55Z" transform="translate(-145 -193.06)"/><path class="cls-2" d="M272.17,261a10.2,10.2,0,0,1-4.05-2.71,5.65,5.65,0,0,1,0-7.35,7,7,0,0,1,4.79-2.46,8.3,8.3,0,0,1,7.31,2.57c1.86,1.91,2.36,5.89.48,8.11a2.29,2.29,0,0,1-1.83,1,1.34,1.34,0,0,1-1.41-.92,1.53,1.53,0,0,1,.57-1.78,4,4,0,0,1,1.15-.47c1.64-.37,2-1.41,1.57-3a3.89,3.89,0,0,0-2.82-2.75,7.25,7.25,0,0,0-7.15,1.27,4.37,4.37,0,0,0-.13,6.64,11.41,11.41,0,0,0,1.4,1.09C272.43,260.46,272.52,260.64,272.17,261Z" transform="translate(-145 -193.06)"/><path class="cls-2" d="M417.32,254.54l-.4.25c-.05,0-.08,0-.09,0l-4.42-6.92.51-.35.63.72a1.5,1.5,0,0,0,2.29.42c.91-.52,1.79-1.09,2.67-1.65,1.64-1,3.3-2,4.91-3.12s1.58-1.66.27-3.2c.36,0,.67-.09.82,0,1.35,1,2.67,2,4,3,.06,0,.09.12.16.23l-2.5,1.6c.82.14,1.52.24,2.21.39a4.07,4.07,0,0,1,2.33,1.24,1.88,1.88,0,0,1-.41,2.94,1.52,1.52,0,0,1-1.72,0,1.46,1.46,0,0,1-.61-1.56c.26-1.58.1-1.79-1.75-2.14a2.84,2.84,0,0,0-2.11.48c-2,1.29-4.07,2.53-6.09,3.82-1.6,1-1.8,1.9-.85,3.52C417.21,254.33,417.25,254.41,417.32,254.54Z" transform="translate(-145 -193.06)"/><path class="cls-2" d="M331,246.36a9.57,9.57,0,0,1-4.91-1.12,5.82,5.82,0,0,1-1.75-8.28,8.06,8.06,0,0,1,5.72-3.5,7.13,7.13,0,0,1,6.72,2.15,5.93,5.93,0,0,1,1.59,5.74,4.23,4.23,0,0,1-1,1.66,1.45,1.45,0,0,1-1.84.05,1.54,1.54,0,0,1-.34-1.92,3.52,3.52,0,0,1,.85-.91c1.61-1.1,1.56-2.26.26-3.74a4.34,4.34,0,0,0-4.42-1.18,7.87,7.87,0,0,0-4.63,2.81,4.53,4.53,0,0,0,2.48,7.38,5.16,5.16,0,0,0,.94.23C331.15,245.75,331.19,246,331,246.36Z" transform="translate(-145 -193.06)"/><path class="cls-2" d="M375.79,289.63l-.48.28c-1.31-1.91-2.45-3.85-2-6.26a5.72,5.72,0,0,1,4.79-4.66,8.36,8.36,0,0,1,9.21,6.47,6.74,6.74,0,0,1-2.55,6.77,3.54,3.54,0,0,1-2.83.74,1.5,1.5,0,0,1-1.24-1.65,1.64,1.64,0,0,1,1.87-1.29c.52.09,1,.25,1.55.35a1.41,1.41,0,0,0,1.46-.56,3.74,3.74,0,0,0,.16-4.57,7.33,7.33,0,0,0-6.39-3.33,4.47,4.47,0,0,0-4.48,3.77,5.26,5.26,0,0,0,.57,3.14Z" transform="translate(-145 -193.06)"/><path class="cls-2" d="M375.86,250c-.1-.16-.31-.32-.29-.46.15-1.63.33-3.26.5-4.89,0-.05,0-.11.06-.23.37.16.73.31,1.08.48,4.31,2,8.63,4,12.93,6.1a10.43,10.43,0,0,1,2,1.27,5.22,5.22,0,0,1-.1,8.07,1.36,1.36,0,0,1-2-.34,1.34,1.34,0,0,1,.6-1.89,12.52,12.52,0,0,1,1.48-.56c1.18-.44,1.42-1.44.43-2.21a13.65,13.65,0,0,0-2.7-1.56c-3.72-1.77-7.47-3.5-11.2-5.24a8.58,8.58,0,0,0-1.06-.41.92.92,0,0,0-1.25.66,10.42,10.42,0,0,0-.28,1.1Z" transform="translate(-145 -193.06)"/><path class="cls-2" d="M281.87,268.54c-.2-.21-.4-.33-.4-.45,0-1.7,0-3.39,0-5.13a1.09,1.09,0,0,1,.32,0c4.91,1.7,9.82,3.38,14.72,5.12a6.62,6.62,0,0,1,3.12,2.12,4.7,4.7,0,0,1,.51,5,6.12,6.12,0,0,1-1.3,1.9,1.19,1.19,0,0,1-1.89-.15,1.34,1.34,0,0,1,.29-1.92c.39-.26.86-.39,1.27-.63a3,3,0,0,0,1-.78,1.14,1.14,0,0,0-.62-1.62,19.44,19.44,0,0,0-2.64-1.17c-4-1.4-8-2.77-12.05-4.14a.77.77,0,0,0-.16-.07c-1.48-.45-1.87-.19-2,1.36A4.93,4.93,0,0,1,281.87,268.54Z" transform="translate(-145 -193.06)"/><path class="cls-2" d="M331.21,248.53c0-.18,0-.44.08-.55,1.16-1.21,2.34-2.4,3.59-3.68.22.38.38.65.52.93,2,4.16,4.1,8.31,6.07,12.51a13.83,13.83,0,0,1,1.12,3.62,4.83,4.83,0,0,1-.35,2.32,5.4,5.4,0,0,1-4.9,3,1.41,1.41,0,0,1-1.3-.84,1.23,1.23,0,0,1,.22-1.34,1.39,1.39,0,0,1,1.52-.4c.52.15,1,.39,1.55.54.91.27,1.63-.24,1.52-1.16a7.18,7.18,0,0,0-.65-2.22q-2.93-6.12-5.91-12.21a6,6,0,0,0-.52-.88c-.46-.63-.79-.7-1.46-.3-.32.19-.62.44-.92.66Z" transform="translate(-145 -193.06)"/><path class="cls-2" d="M388.21,268.52l-3.3,3.07-.37-.4a5.82,5.82,0,0,0,1.33-3c.13-1.52-1.13-3.33-2.71-3.1a2.06,2.06,0,0,0-1.92,2.1,32,32,0,0,0,.63,3.63,8.63,8.63,0,0,1,.21,3.57,3.91,3.91,0,0,1-6.1,2.4,7.48,7.48,0,0,1-2.75-3.15c-.14-.27-.27-.55-.39-.83a.85.85,0,0,0-.81-.6c-.14,0-.27-.13-.49-.25l.31-.23,3.58-3.1c.34.22.37.42.13.75a5.4,5.4,0,0,0-1.34,3.49,3.46,3.46,0,0,0,1.72,2.87,2.17,2.17,0,0,0,3.32-1.85,23.08,23.08,0,0,0-.49-3.49,10,10,0,0,1-.2-3.4,3.7,3.7,0,0,1,2.5-3,3.77,3.77,0,0,1,4,.81,9.51,9.51,0,0,1,1.32,1.63C386.89,267.18,386.87,268.32,388.21,268.52Z" transform="translate(-145 -193.06)"/><path class="cls-2" d="M344.59,237.3c.56,0,.59.3.62.65a6.4,6.4,0,0,0,.78,2.76,3.71,3.71,0,0,0,3.7,1.63,2.24,2.24,0,0,0,1.16-3.76A23.22,23.22,0,0,0,349,237a29.07,29.07,0,0,1-2.67-2.4,3.68,3.68,0,0,1-.55-4.22,3.92,3.92,0,0,1,3.46-2.24,5.79,5.79,0,0,1,3.28.79c.42.21.81.43,1.32.09.35-.23.38.16.35.41-.15,1.3-.3,2.6-.46,3.93-.37.07-.48,0-.57-.4a10.9,10.9,0,0,0-.77-2.59,2.93,2.93,0,0,0-3.13-1.41,2.16,2.16,0,0,0-1,3.72c.77.76,1.71,1.34,2.53,2a17.83,17.83,0,0,1,2.29,2.13c1.89,2.33.68,5.58-2.52,6.28a7.22,7.22,0,0,1-4.34-.58,5,5,0,0,0-.95-.37,2.6,2.6,0,0,0-.81.14c-.12,0-.24.1-.35.07s-.16-.16-.15-.24Q344.25,239.71,344.59,237.3Z" transform="translate(-145 -193.06)"/><path class="cls-2" d="M262.21,281.61l.28.39a24.56,24.56,0,0,0-1.4,2.21,3.6,3.6,0,0,0,.72,4.3,2.24,2.24,0,0,0,2.42.52,2.29,2.29,0,0,0,1.49-2.3c0-1.15-.28-2.3-.36-3.46a12,12,0,0,1,0-2.68,3.68,3.68,0,0,1,2.95-3.19,3.94,3.94,0,0,1,4.29,1.7,12.19,12.19,0,0,1,1.13,2.22c.2.41.29.88.87.93.08,0,.14.17.24.31l-1.7,1.35c-.57.45-1.13.91-1.68,1.36-.37-.24-.36-.43-.1-.75a5.53,5.53,0,0,0,1.36-2.72,3.23,3.23,0,0,0-1.79-3.05A2.16,2.16,0,0,0,268,280.9c0,1.17.3,2.33.37,3.51a12.81,12.81,0,0,1,0,3.39c-.58,2.65-3.53,3.7-5.95,2.21a7.06,7.06,0,0,1-2.76-3.47c-.13-.32-.26-.63-.4-.94s-.29-.62-.74-.57c-.12,0-.26-.17-.46-.32Z" transform="translate(-145 -193.06)"/><path class="cls-2" d="M326,269.67c.25-1.37.52-2.79.78-4.2.37-.08.49,0,.52.39a10.66,10.66,0,0,0,.3,2,3.05,3.05,0,0,0,3.63,2.25,2.12,2.12,0,0,0,1.33-3,7.21,7.21,0,0,0-2.09-2.24,28.33,28.33,0,0,1-2.33-2.18,3.81,3.81,0,0,1-.83-4.47,4.12,4.12,0,0,1,3.85-2.32,7.1,7.1,0,0,1,3.41.77l1,.5c.36.18.72.35,1.08,0,.07-.07.25,0,.5-.06-.35,1.71-.69,3.35-1,5.05l-.46-.12a22.54,22.54,0,0,0-.51-2.89,3.58,3.58,0,0,0-4-2.38,2,2,0,0,0-1.58,1.41,2.24,2.24,0,0,0,.51,2.43c.8.84,1.68,1.61,2.54,2.4a6.43,6.43,0,0,1,2.28,3.26,3.85,3.85,0,0,1-2.88,4.58,5.4,5.4,0,0,1-3.91-.6,4.21,4.21,0,0,0-.8-.44A10.55,10.55,0,0,0,326,269.67Z" transform="translate(-145 -193.06)"/><path class="cls-2" d="M385.17,232.54l6.65,2.2c.61.2,1.22.39,1.84.56,1,.26,1.46-.06,1.56-1.06,0-.4.19-.49.61-.37.06,1.43.12,2.86.19,4.49-.26-.14-.52-.2-.57-.33a1.78,1.78,0,0,0-1.24-1.16l-7.47-2.61-5.16-1.77a3.64,3.64,0,0,1-.68-.45c.2-.2.37-.48.61-.6,2.82-1.36,5.66-2.69,8.48-4.05,1.28-.62,2.55-1.28,3.8-1.94a1.88,1.88,0,0,0,1-1.51c0-.12.23-.22.35-.33.1.12.26.23.26.35.09,2,.16,3.92.23,5.91-.33.15-.52.08-.62-.29-.31-1.15-.65-1.32-1.77-.81-1.84.83-3.65,1.69-5.48,2.55Z" transform="translate(-145 -193.06)"/><path class="cls-2" d="M317.38,297.22c.53-1,1-1.84,1.49-2.73.88-1.64,1.77-3.27,2.62-4.93.57-1.12.38-1.52-.78-2-.14-.06-.21-.28-.31-.42l.12-.12,2.31.26,1.64.19c.43,0,.43,0,.38.59-.93-.08-1.37.55-1.76,1.26q-2.65,4.83-5.32,9.64c-.37.68-.74,1.37-1.14,2a2.1,2.1,0,0,1-.5.43,2,2,0,0,1-.38-.52c-.55-1.86-1.07-3.72-1.6-5.58-.66-2.33-1.28-4.67-2-7a2.46,2.46,0,0,0-1.91-2.09c0-.33,0-.5.46-.44,1.78.24,3.55.43,5.33.65.18,0,.36.07.57.11l-.1.51-.51,0c-.93,0-1.19.27-1,1.19s.47,1.87.71,2.81l1.5,5.66C317.25,296.88,317.3,297,317.38,297.22Z" transform="translate(-145 -193.06)"/><path class="cls-2" d="M288.87,257.17c.36.29.72.55,1,.83a1.53,1.53,0,0,1,.27.44c-.14.08-.28.23-.42.23a19.76,19.76,0,0,0-5.65,1,2.43,2.43,0,0,1-.54,0,2.09,2.09,0,0,1,.21-.53c.69-.91,1.39-1.81,2.13-2.77l-2.47-2,.74-.93c.82.65,1.63,1.27,2.49,1.94.71-.89,1.41-1.76,2.1-2.64,1.25-1.59,2.52-3.16,3.73-4.78a3.81,3.81,0,0,0,.74-1.56,1.43,1.43,0,0,0-1.46-1.66c-.34,0-.69,0-1,0a.42.42,0,0,1-.31-.23.38.38,0,0,1,.16-.33,4.54,4.54,0,0,1,4.62.66,2.56,2.56,0,0,1,.44,3.25,32.26,32.26,0,0,1-2.27,3.22C291.91,253.3,290.4,255.21,288.87,257.17Z" transform="translate(-145 -193.06)"/><path class="cls-2" d="M380.62,255.59c-.28-.38-.53-.71-.76-1.06a4.19,4.19,0,0,1-.2-.49,2.1,2.1,0,0,1,.64-.11c.69.11,1.37.35,2.06.4,1.16.1,2.32.09,3.48.15a1.59,1.59,0,0,1,.54.19,2.63,2.63,0,0,1-.35.39l-2.81,2.08,1.84,2.6-.92.64-1.86-2.55-1.48,1c-2.05,1.48-4.11,3-6.15,4.45a5.36,5.36,0,0,0-.92.86,1.53,1.53,0,0,0,.57,2.45,11.9,11.9,0,0,0,1.35.42l-.06.44a4.55,4.55,0,0,1-3.81-1.07c-1.26-1.24-1.43-2.57-.26-3.89a16.71,16.71,0,0,1,2.6-2.2C376.25,258.74,378.4,257.2,380.62,255.59Z" transform="translate(-145 -193.06)"/><path class="cls-2" d="M258.63,224.19c.78-.43,1.46-.85,2.18-1.2a3,3,0,0,1,2.15-.29,1.75,1.75,0,0,1,1.36,1.26,1.57,1.57,0,0,1-.49,1.71,1.29,1.29,0,0,1-1.84,0,5.59,5.59,0,0,1-.62-.81,1,1,0,0,0-1.36-.45,3.14,3.14,0,0,0-2.14,2.17c-.62,2.07-1.33,4.11-2,6.16-.57,1.75-.26,2.41,1.44,3.09l.3.15-.13.44c-.08,0-.12,0-.15,0q-3.39-1.08-6.77-2.19c-.16-.05-.26-.27-.39-.42a2.44,2.44,0,0,1,.57-.16c.38,0,.76.06,1.14.06a1,1,0,0,0,1-.73c.4-1.05.77-2.1,1.11-3.16.59-1.83,1.16-3.65,1.69-5.5.39-1.37-.21-1.94-1.34-2a.9.9,0,0,1-.27-.1c0-.34.11-.53.5-.54,1.49,0,3-.07,4.46-.14.43,0,.4.15.31.44C259.1,222.69,258.87,223.4,258.63,224.19Z" transform="translate(-145 -193.06)"/><path class="cls-2" d="M269,241.81a22,22,0,0,1-1.63-1.57,2.78,2.78,0,0,1-.78-2.82,1.69,1.69,0,0,1,2.32-1,1.33,1.33,0,0,1,.48,2.17c-.15.19-.33.37-.49.56-.5.61-.48.84,0,1.51a3.84,3.84,0,0,0,3.33,1.52c1.9.09,3.81.18,5.71.36,2.08.2,2.55-.75,2.68-2.43l.58,0c-.18,2.59-.35,5.11-.52,7.64-.43.16-.63,0-.63-.41,0-1.67-.48-1.95-2.31-2.06-2-.12-4-.29-6-.41a13.68,13.68,0,0,0-2.56,0c-.81.1-1,.45-1,1.26V247c-.27-.19-.53-.28-.57-.43-.47-1.5-.91-3-1.35-4.52a1.84,1.84,0,0,1,0-.24l2.64.13Z" transform="translate(-145 -193.06)"/><path class="cls-2" d="M366.81,242.38c-.31-.2-.6-.39-.9-.56-.87-.51-1.25-.48-2,.26s-1.63,1.76-2.43,2.65q-1.49,1.64-2.94,3.28a4.86,4.86,0,0,0-.48.64c-.54.87-.9,1.58.39,2.3a1.86,1.86,0,0,1,.26.23c-.13.34-.33.41-.67.27-1.35-.55-2.71-1.08-4.07-1.6-.36-.14-.39-.3-.13-.57.49-.53,1-1.07,1.57-1.75-.75.08-1.33.15-1.92.2a3.34,3.34,0,0,1-2.87-.79,1.67,1.67,0,0,1,1-2.94,1.47,1.47,0,0,1,1.41,1.5c.1,1.16.42,1.38,1.56,1.32a3.47,3.47,0,0,0,2.56-1.29c1.33-1.57,2.73-3.08,4.11-4.61s1.25-2.18-.06-3.5a2.51,2.51,0,0,1-.21-.23l.37-.4,2.94,2.64c.82.74,1.62,1.5,2.46,2.22C367.18,241.93,367.17,242.13,366.81,242.38Z" transform="translate(-145 -193.06)"/><path class="cls-2" d="M370.54,283.42l.43.23a1.13,1.13,0,0,1-.07.18L367.33,290c-.19.35-.37.39-.66.09.13-.36.29-.72.4-1.1a1.22,1.22,0,0,0-.55-1.63c-1.62-1-3.27-1.94-4.92-2.89-1-.55-1.91-1.1-2.9-1.58-1.21-.59-1.91-.22-2.19.89a1.15,1.15,0,0,1-.12.25c-.38-.08-.5-.21-.42-.63.32-1.53.56-3.06.84-4.71l2.41,1.3c-.26-.91-.56-1.75-.74-2.61a2.54,2.54,0,0,1,.79-2.65,1.51,1.51,0,0,1,1.76-.18A1.41,1.41,0,0,1,362,276a1.43,1.43,0,0,1-1,1.24c-.19.08-.39.13-.58.22-.69.3-.83.62-.7,1.35a3.37,3.37,0,0,0,1.86,2.56c1.82,1,3.6,2.06,5.4,3.09s2.4.78,3.42-.84C370.42,283.56,370.47,283.52,370.54,283.42Z" transform="translate(-145 -193.06)"/><path class="cls-2" d="M304.49,285.81c-.3-.11-.58-.13-.65-.26-.79-1.43-1.54-2.87-2.35-4.41l2.69-.43c-.75-.53-1.46-1-2.12-1.53a2.52,2.52,0,0,1-1-2.87,1.64,1.64,0,0,1,2.68-.57,2.11,2.11,0,0,1,.31,1.14,1.53,1.53,0,0,1-.29.72c-.66,1.15-.6,1.43.47,2.22a3.4,3.4,0,0,0,2.7.54q3.12-.5,6.26-.91c1.64-.22,2.27-1,2-2.65-.07-.41.11-.46.51-.42.36,2.51.73,5,1.11,7.63l-.55.13c-.11-.33-.2-.62-.3-.91-.35-1.05-.78-1.33-1.87-1.2-1.26.16-2.53.32-3.79.5-1.48.21-3,.45-4.45.69a4.35,4.35,0,0,0-.76.22,1.19,1.19,0,0,0-.81,1.67C304.36,285.29,304.4,285.47,304.49,285.81Z" transform="translate(-145 -193.06)"/><path class="cls-2" d="M405.42,253.93c.5-2,1-3.91,1.46-5.84s1-4,1.46-6c.33-1.42.09-1.84-1.29-2.41-.17-.08-.42-.3-.4-.4.08-.4.37-.17.59-.12l6.56,1.64a3.36,3.36,0,0,1,.44.19c-.27.15-.42.3-.59.31a4.4,4.4,0,0,1-.8-.07c-.9-.08-1.33.14-1.61,1s-.57,2-.84,3.06c-.49,1.93-1,3.86-1.44,5.79-.31,1.24-.12,1.93,1.47,1.84.15,0,.3,0,.66,0-.25.24-.37.49-.53.5-1.61.18-3.22.32-4.83.47A1.14,1.14,0,0,1,405.42,253.93Z" transform="translate(-145 -193.06)"/><path class="cls-2" d="M341.46,266.72c.2,0,.45-.08.59,0,1.33.89,2.65,1.8,4,2.71a2.92,2.92,0,0,1,.28.23l-2.75,2c-2.34,1.7-4.7,3.39-7,5.13-1.33,1-1.38,1.44-.58,2.88l.14.28-.39.28-4-5.47c-.09-.12-.17-.25-.27-.36-.21-.27-.22-.47.14-.57.4.35.79.71,1.2,1a1,1,0,0,0,1.26.1c1.07-.71,2.16-1.41,3.21-2.16,1.55-1.11,3.09-2.24,4.6-3.39,1-.77,1-1.41,0-2.19l-.4-.32Z" transform="translate(-145 -193.06)"/><path class="cls-2" d="M307,271.43c.1-1.19.18-2.31.28-3.42.13-1.48.29-3,.41-4.44s.28-2.89.34-4.33-.29-1.84-1.7-2.17c-.17,0-.3-.23-.45-.35a1.52,1.52,0,0,1,.53-.13c2.15.16,4.29.33,6.44.51.29,0,.75-.11.64.51l-1,.1c-1.37.16-1.56.4-1.72,1.87-.32,2.81-.52,5.62-.77,8.43-.14,1.53.42,2,1.92,1.63l.24-.05c.13.3.12.5-.24.59Z" transform="translate(-145 -193.06)"/><path class="cls-4" d="M246.82,313.92a3.78,3.78,0,0,1,7.55,0,3.78,3.78,0,1,1-7.55,0Z" transform="translate(-145 -193.06)"/><path class="cls-4" d="M405.42,314.19a3.76,3.76,0,0,1-3.7,3.77,3.79,3.79,0,0,1,0-7.57A3.76,3.76,0,0,1,405.42,314.19Z" transform="translate(-145 -193.06)"/><path class="cls-5" d="M202.75,311.14l.06-.64h1.69v7h-1.7l-.06-.59a3.34,3.34,0,0,1-5-.63,4.06,4.06,0,0,1,.36-5C199.35,310.09,201,310,202.75,311.14Zm-3.21,2.45c0,1.31.7,2.12,1.84,2.13a1.91,1.91,0,0,0,2-2.06,2,2,0,0,0-1.91-2.12A1.87,1.87,0,0,0,199.54,313.59Z" transform="translate(-145 -193.06)"/><path class="cls-6" d="M309.88,275a1.56,1.56,0,0,1-1.61,1.62,1.69,1.69,0,0,1-1.7-1.63,1.71,1.71,0,0,1,1.65-1.7A1.64,1.64,0,0,1,309.88,275Z" transform="translate(-145 -193.06)"/><path class="cls-2" d="M372.16,243.44a1.63,1.63,0,0,1-1.57,1.69,1.76,1.76,0,0,1-1.74-1.7,1.65,1.65,0,0,1,1.64-1.63A1.6,1.6,0,0,1,372.16,243.44Z" transform="translate(-145 -193.06)"/><path class="cls-2" d="M331.23,241.71a1.65,1.65,0,0,1-1.65-1.68,1.62,1.62,0,0,1,1.63-1.63,1.66,1.66,0,1,1,0,3.31Z" transform="translate(-145 -193.06)"/><path class="cls-6" d="M348.14,264.77a1.66,1.66,0,0,1,1.65,1.68,1.71,1.71,0,0,1-1.72,1.63,1.64,1.64,0,0,1-1.59-1.66A1.61,1.61,0,0,1,348.14,264.77Z" transform="translate(-145 -193.06)"/><path class="cls-2" d="M407.75,257.7a1.72,1.72,0,0,1-1.65,1.65,1.67,1.67,0,0,1-1.63-1.77,1.7,1.7,0,0,1,1.67-1.62A1.67,1.67,0,0,1,407.75,257.7Z" transform="translate(-145 -193.06)"/><path class="cls-2" d="M277.42,262.53a1.69,1.69,0,0,1-1.64,1.63,1.77,1.77,0,0,1-1.67-1.7,1.62,1.62,0,0,1,1.69-1.63A1.66,1.66,0,0,1,277.42,262.53Z" transform="translate(-145 -193.06)"/></g></svg>